<svg width="69" height="42" viewBox="0 0 69 42" fill="none" xmlns="http://www.w3.org/2000/svg">
<rect x="68" y="40.8689" width="67" height="39" rx="9" transform="rotate(-180 68 40.8689)" fill="#F0F8F7"/>
<path d="M54.7071 21.1618C55.0976 21.5523 55.0976 22.1855 54.7071 22.576L48.3431 28.94C47.9526 29.3305 47.3195 29.3305 46.9289 28.94C46.5384 28.5494 46.5384 27.9163 46.9289 27.5258L52.5858 21.8689L46.9289 16.212C46.5384 15.8215 46.5384 15.1884 46.9289 14.7978C47.3195 14.4073 47.9526 14.4073 48.3431 14.7978L54.7071 21.1618ZM19.124 20.8689L54 20.8689V22.8689L19.124 22.8689V20.8689Z" fill="#F99746"/>
<rect x="68" y="40.8689" width="67" height="39" rx="9" transform="rotate(-180 68 40.8689)" stroke="#F99746" stroke-width="2"/>
</svg>
