<svg width="45" height="47" viewBox="0 0 45 47" fill="none" xmlns="http://www.w3.org/2000/svg">
<path d="M45 23.1203C45 10.3706 35.0327 0.0374146 22.7344 0.0374146C10.4361 0.0374146 0.46875 10.3706 0.46875 23.1203C0.46875 35.8701 10.4361 46.2033 22.7344 46.2033C22.8648 46.2033 22.9953 46.2033 23.1258 46.1943V28.2329H18.3421V22.4531H23.1258V18.1972C23.1258 13.265 26.0307 10.578 30.2751 10.578C32.3103 10.578 34.0585 10.7313 34.563 10.8034V15.961H31.6406C29.3358 15.961 28.8835 17.0971 28.8835 18.7652V22.4441H34.4064L33.6845 28.2238H28.8835V45.3106C38.1898 42.5425 45 33.6609 45 23.1203Z" fill="#2E2E3B"/>
</svg>
