<svg width="30" height="30" viewBox="0 0 30 30" fill="none" xmlns="http://www.w3.org/2000/svg">
<path d="M29.0545 15C29.0545 6.71484 22.5595 0 14.5455 0C6.53146 0 0.036377 6.71484 0.036377 15C0.036377 23.2852 6.53146 30 14.5455 30C14.6305 30 14.7155 30 14.8005 29.9941V18.3223H11.6833V14.5664H14.8005V11.8008C14.8005 8.5957 16.6935 6.84961 19.4593 6.84961C20.7855 6.84961 21.9247 6.94922 22.2534 6.99609V10.3477H20.3491C18.8472 10.3477 18.5525 11.0859 18.5525 12.1699V14.5605H22.1514L21.681 18.3164H18.5525V29.4199C24.6168 27.6211 29.0545 21.8496 29.0545 15Z" fill="#F99746"/>
</svg>
