<svg width="30" height="30" viewBox="0 0 30 30" fill="none" xmlns="http://www.w3.org/2000/svg">
<path d="M14.5091 0C22.5225 0 29.0182 6.71543 29.0182 15C29.0182 23.2846 22.5225 30 14.5091 30C6.49565 30 0 23.2846 0 15C0 6.71543 6.49565 0 14.5091 0ZM11.4735 7.43379C8.74399 7.5627 7.31008 9.15059 7.19106 11.8617C7.10038 13.9143 7.10038 16.0857 7.19106 18.1383C7.31008 20.8494 8.74399 22.4373 11.4735 22.5662C13.4594 22.6594 15.5593 22.6594 17.5452 22.5662C20.1676 22.442 21.703 20.9619 21.8277 18.1383C21.9178 16.0852 21.9178 13.9154 21.8277 11.8617C21.7052 9.09844 20.2181 7.56035 17.5452 7.43379C15.5593 7.34063 13.4594 7.34063 11.4735 7.43379ZM17.4846 8.8043C19.4677 8.89746 20.4125 9.87363 20.502 11.9244C20.5916 13.9342 20.5916 16.0658 20.502 18.0756C20.4096 20.1855 19.4161 21.1049 17.4846 21.1957C15.5395 21.2877 13.4793 21.2877 11.5342 21.1957C9.60206 21.1049 8.6091 20.1855 8.51615 18.0756C8.42717 16.0658 8.42717 13.9342 8.51615 11.9244C8.604 9.92637 9.49381 8.90039 11.5342 8.8043C13.4793 8.7123 15.5395 8.7123 17.4846 8.8043ZM14.5091 17.5371C13.154 17.5371 12.055 16.4016 12.055 15C12.0556 13.5984 13.154 12.4629 14.5091 12.4629C15.8648 12.4629 16.9637 13.5984 16.9637 15C16.9637 16.401 15.8648 17.5371 14.5091 17.5371ZM14.5091 11.0912C12.4217 11.0912 10.7282 12.8414 10.7282 15C10.7282 17.1586 12.4211 18.9088 14.5091 18.9088C16.5976 18.9088 18.2899 17.1586 18.2899 15C18.2899 12.8414 16.5976 11.0912 14.5091 11.0912ZM19.3231 10.9365C19.3231 11.441 18.9275 11.8506 18.4396 11.8506C17.951 11.8506 17.556 11.4416 17.556 10.9371C17.556 10.4326 17.951 10.0236 18.4396 10.0236C18.9275 10.0236 19.3231 10.4326 19.3231 10.9365Z" fill="#F99746"/>
</svg>
