<svg width="45" height="47" viewBox="0 0 45 47" fill="none" xmlns="http://www.w3.org/2000/svg">
<path d="M22.2656 0.0374146C34.563 0.0374146 44.5312 10.3715 44.5312 23.1203C44.5312 35.8692 34.563 46.2033 22.2656 46.2033C9.96822 46.2033 0 35.8692 0 23.1203C0 10.3715 9.96822 0.0374146 22.2656 0.0374146ZM17.6072 11.477C13.4185 11.6754 11.218 14.1189 11.0354 18.291C10.8962 21.4495 10.8962 24.7912 11.0354 27.9497C11.218 32.1218 13.4185 34.5653 17.6072 34.7637C20.6548 34.9071 23.8773 34.9071 26.9249 34.7637C30.9492 34.5725 33.3054 32.2949 33.4967 27.9497C33.635 24.7903 33.635 21.4513 33.4967 18.291C33.3089 14.0387 31.0266 11.6718 26.9249 11.477C23.8773 11.3336 20.6548 11.3336 17.6072 11.477ZM26.8318 13.586C29.8751 13.7294 31.325 15.2316 31.4624 18.3874C31.5998 21.4802 31.5998 24.7605 31.4624 27.8532C31.3206 31.1002 29.7959 32.5149 26.8318 32.6547C23.8468 32.7962 20.6853 32.7962 17.7003 32.6547C14.7353 32.5149 13.2115 31.1002 13.0689 27.8532C12.9323 24.7605 12.9323 21.4802 13.0689 18.3874C13.2037 15.3127 14.5692 13.7339 17.7003 13.586C20.6853 13.4444 23.8468 13.4444 26.8318 13.586ZM22.2656 27.0246C20.1861 27.0246 18.4996 25.2772 18.4996 23.1203C18.5005 20.9635 20.1861 19.2161 22.2656 19.2161C24.3461 19.2161 26.0325 20.9635 26.0325 23.1203C26.0325 25.2763 24.3461 27.0246 22.2656 27.0246ZM22.2656 17.1053C19.0623 17.1053 16.4635 19.7986 16.4635 23.1203C16.4635 26.4421 19.0615 29.1354 22.2656 29.1354C25.4707 29.1354 28.0677 26.4421 28.0677 23.1203C28.0677 19.7986 25.4707 17.1053 22.2656 17.1053ZM29.6533 16.8672C29.6533 17.6436 29.0462 18.2738 28.2973 18.2738C27.5476 18.2738 26.9414 17.6445 26.9414 16.8681C26.9414 16.0918 27.5476 15.4624 28.2973 15.4624C29.0462 15.4624 29.6533 16.0918 29.6533 16.8672Z" fill="#2E2E3B"/>
</svg>
