<svg width="182" height="86" viewBox="0 0 182 86" fill="none" xmlns="http://www.w3.org/2000/svg">
<path d="M64.272 22.9606C64.1748 23.1308 64.1859 23.3421 64.3006 23.5011C65.9471 25.7847 67.555 29.0232 68.7508 32.4657C69.9471 35.9095 70.7173 39.5179 70.7173 42.5387C70.7173 57.939 58.2329 70.4233 42.8327 70.4233C35.1468 70.4233 28.1879 67.3144 23.1435 62.2843C22.9948 62.1361 22.7694 62.0965 22.5792 62.1852L10.2656 67.9268C10.1265 67.9916 10.025 68.1166 9.99002 68.2659C9.95506 68.4153 9.99057 68.5724 10.0864 68.6922C17.7649 78.2939 29.5805 84.4457 42.8327 84.4457C65.9773 84.4457 84.7397 65.6833 84.7397 42.5387C84.7397 30.5264 79.6833 18.5925 71.5601 10.9414C71.4463 10.8342 71.2889 10.7864 71.1347 10.8123C70.9804 10.8381 70.8472 10.9346 70.7745 11.0731L67.5231 17.2711L64.272 22.9606ZM17.1178 54.0565C17.2428 53.9117 17.2743 53.7083 17.1988 53.5325C15.7504 50.1598 14.948 46.4436 14.948 42.5387C14.948 27.1384 27.4324 14.654 42.8327 14.654C47.8097 14.654 52.4808 15.9575 56.5248 18.2414C56.6971 18.3387 56.9105 18.3252 57.0692 18.2071L68.2603 9.87518C68.3874 9.78054 68.4622 9.63123 68.4617 9.47275C68.4613 9.31426 68.3857 9.16537 68.2581 9.07143C61.3144 3.96108 52.1225 0.631683 42.8327 0.631683C19.6881 0.631683 0.925659 19.3941 0.925659 42.5387C0.925659 50.6216 3.21452 58.1714 7.17968 64.5737C7.26349 64.709 7.40671 64.7963 7.56539 64.8089C7.72406 64.8214 7.87922 64.7577 7.98323 64.6372L17.1178 54.0565Z" fill="#F99746" stroke="#2E2E3B" stroke-linejoin="round"/>
<path d="M42.8326 57.1146C50.8827 57.1146 57.4085 50.5887 57.4085 42.5387C57.4085 39.3598 57.464 36.3177 55.7368 33.9222L57.4085 30.9966L59.0803 27.8097C63.1972 31.6874 64.0957 36.4368 64.0957 42.5387C64.0957 54.282 54.5759 63.8018 42.8326 63.8018C36.1088 63.8018 30.7649 61.5394 26.8685 56.6671L30.0301 55.193L33.1917 53.7188C35.8283 56.3478 38.8151 57.1146 42.8326 57.1146Z" fill="#00715D"/>
<path d="M28.2567 42.5387C28.2567 34.4886 34.7826 27.9628 42.8326 27.9628C45.4338 27.9628 47.8758 28.6441 49.99 29.8381L55.7368 25.5596C52.2121 22.9655 47.5446 21.2756 42.8326 21.2756C31.0894 21.2756 21.5696 30.7954 21.5696 42.5387C21.5696 46.6403 22.7309 50.4706 24.7426 53.7188L29.4334 48.2855C28.6761 46.5221 28.2567 44.5794 28.2567 42.5387Z" fill="#00715D"/>
<path d="M55.3026 33.6741C55.2054 33.8443 55.2165 34.0556 55.3312 34.2146C56.91 36.4043 56.9094 39.1859 56.9086 42.3283C56.9086 42.3982 56.9085 42.4684 56.9085 42.5387C56.9085 50.3126 50.6065 56.6146 42.8326 56.6146C38.8897 56.6146 36.0534 55.8662 33.5448 53.3647C33.3961 53.2165 33.1707 53.1769 32.9804 53.2656L29.8188 54.7398L26.6572 56.214C26.5182 56.2788 26.4166 56.4038 26.3817 56.5532C26.3467 56.7025 26.3822 56.8596 26.478 56.9794C30.4839 61.9886 35.9819 64.3018 42.8326 64.3018C54.852 64.3018 64.5957 54.5581 64.5957 42.5387C64.5957 36.3915 63.6921 31.4666 59.4231 27.4457C59.3093 27.3385 59.1519 27.2907 58.9977 27.3166C58.8434 27.3424 58.7102 27.439 58.6376 27.5774L56.97 30.7563L55.3026 33.6741ZM49.7441 30.2735C49.9164 30.3708 50.1299 30.3573 50.2886 30.2392L56.0353 25.9606C56.1625 25.866 56.2372 25.7167 56.2368 25.5582C56.2363 25.3997 56.1608 25.2508 56.0331 25.1569C52.4286 22.5041 47.6585 20.7756 42.8326 20.7756C30.8132 20.7756 21.0696 30.5193 21.0696 42.5387C21.0696 46.7359 22.2583 50.657 24.3176 53.982C24.4014 54.1174 24.5446 54.2047 24.7033 54.2172C24.8619 54.2298 25.0171 54.166 25.1211 54.0455L29.8118 48.6122C29.9369 48.4674 29.9683 48.2639 29.8928 48.0882C29.1618 46.386 28.7567 44.5103 28.7567 42.5387C28.7567 34.7648 35.0587 28.4628 42.8326 28.4628C45.3454 28.4628 47.703 29.1208 49.7441 30.2735Z" stroke="#2E2E3B" stroke-linejoin="round"/>
<path d="M41.4933 14.3958L47.2076 1.33513L49.65 1.65026L53.4966 16.4523L50.9076 15.579L47.8205 3.08674L48.7947 3.15513L44.1031 14.3924L41.4933 14.3958ZM44.1064 11.7574L44.9249 9.46753L50.4051 9.85225L50.9109 12.2351L44.1064 11.7574Z" fill="#2E2E3B"/>
<path d="M20.152 25.9412L10.1268 21.2546L8.67239 24.3185L5.77802 23.2567L6.59475 21.7321L7.72146 19.8025L9.05857 17.8764L11.2264 15.2338L13.2426 16.0872L11.1786 19.0387L21.6984 23.9285L20.152 25.9412Z" fill="#2E2E3B"/>
<path d="M33.7166 15.9869L29.3245 6.18501L26.2469 7.61008L24.8252 5.19543L26.4925 4.46559L28.3403 3.73568L30.738 2.86777L33.9597 2.02927L35.0203 4.19604L31.5503 5.15438L36.3668 15.2855L33.7166 15.9869Z" fill="#2E2E3B"/>
<path d="M14.7112 42.2563L1.0778 41.0842L1.17586 39.0492L11.3757 33.5303L11.2892 34.5284L1.90209 34.2687L2.63592 31.422L16.3777 33.0016L15.6418 35.3395L4.80986 39.954L4.89641 38.9559L14.8076 39.7124L14.7112 42.2563Z" fill="#2E2E3B"/>
<path d="M15.818 51.2852L2.37282 52.2143L1.75533 49.1626L15.097 48.3353L15.818 51.2852Z" fill="#2E2E3B"/>
<path d="M25.917 19.9942L15.2178 11.2031L16.3998 10.1577L17.6338 9.25282L28.6988 18.1913L25.917 19.9942Z" fill="#2E2E3B"/>
<path d="M79.1054 32.3698L79.1055 32.3698L79.1071 32.3653C79.3019 31.8267 79.4225 31.2609 79.4697 30.6687C79.5222 30.0087 79.4805 29.4213 79.3366 28.912L79.3366 28.912L79.3354 28.9081C79.1834 28.4015 78.9446 27.9864 78.61 27.6777C78.2716 27.3563 77.8569 27.1773 77.3776 27.1392C76.9627 27.1062 76.5939 27.1601 76.2884 27.3238C75.9992 27.4788 75.7677 27.6989 75.5968 27.9803C75.4294 28.2346 75.2932 28.5166 75.1872 28.8252C75.0834 29.1272 75.0011 29.4353 74.9405 29.7495C74.8758 30.0365 74.8053 30.296 74.7292 30.5286C74.6558 30.7529 74.5707 30.9177 74.4799 31.033C74.4235 31.1045 74.3495 31.1424 74.2177 31.1319C74.1024 31.1228 73.995 31.0621 73.8982 30.8782C73.8036 30.689 73.7569 30.3767 73.7941 29.9086C73.8183 29.6047 73.8785 29.3031 73.9751 29.0033L73.9752 29.0034L73.9773 28.9961C74.0631 28.6997 74.2076 28.4077 74.4146 28.1201C74.4552 28.0636 74.4705 27.9926 74.4567 27.9244C74.4428 27.8562 74.4012 27.7968 74.3417 27.7606L73.1764 27.0505C73.0652 26.9828 72.9205 27.0118 72.844 27.1172C72.6114 27.4377 72.4251 27.8412 72.28 28.32C72.1355 28.7969 72.044 29.2748 72.0059 29.7535C71.9553 30.3899 72.003 30.9619 72.1571 31.4643C72.303 31.9567 72.5442 32.3632 72.8872 32.6713C73.2272 32.984 73.646 33.1571 74.1307 33.1956C74.5528 33.2292 74.9263 33.1761 75.2326 33.012C75.5183 32.8588 75.7556 32.6473 75.9424 32.3798L75.9424 32.3799L75.946 32.3744C76.1146 32.1191 76.2518 31.8357 76.3584 31.5254L76.3585 31.5255L76.361 31.5176C76.4553 31.2104 76.5364 30.9062 76.6042 30.6049L76.6044 30.6039C76.6705 30.3048 76.7381 30.0371 76.807 29.8004C76.8719 29.5775 76.9524 29.4154 77.0412 29.3028L77.0413 29.303L77.0471 29.295C77.0992 29.2231 77.1599 29.1925 77.265 29.2008C77.3913 29.2109 77.4958 29.2735 77.5824 29.4504L77.5824 29.4504L77.5843 29.4541C77.6701 29.622 77.715 29.9307 77.6758 30.4231C77.6439 30.8238 77.5519 31.221 77.3986 31.6151C77.2435 32.014 77.0629 32.3462 76.8592 32.6153C76.8166 32.6717 76.7998 32.7434 76.813 32.8129C76.8261 32.8823 76.8681 32.9429 76.9285 32.9797L78.0938 33.6897C78.2003 33.7546 78.3382 33.7311 78.4173 33.6347C78.6774 33.3172 78.9051 32.8921 79.1054 32.3698Z" fill="#2E2E3B" stroke="#F8FCFB" stroke-width="0.5" stroke-linejoin="round"/>
<path d="M81.1603 42.7243L81.1624 42.7226C81.6734 42.3339 81.9809 41.7292 82.1124 40.9503C82.1642 40.6432 82.174 40.3372 82.1414 40.0328C82.1082 39.7233 82.0245 39.4436 81.8851 39.1991C81.8312 39.1048 81.7227 39.056 81.6164 39.0784L80.4227 39.3296C80.3454 39.3459 80.2803 39.3977 80.2472 39.4695C80.2141 39.5412 80.2169 39.6244 80.2547 39.6938C80.3681 39.9021 80.4076 40.1525 80.3558 40.4597C80.3153 40.6992 80.2189 40.8474 80.0841 40.9395C79.9492 41.0245 79.7575 41.0624 79.4806 41.0156L76.5325 40.5179L76.7946 38.9659C76.8175 38.8297 76.7258 38.7007 76.5897 38.6777L75.332 38.4654C75.1958 38.4424 75.0668 38.5341 75.0438 38.6703L74.7818 40.2223L73.4939 40.0048C73.3577 39.9818 73.2287 40.0736 73.2058 40.2097L72.9403 41.7818C72.9173 41.918 73.009 42.047 73.1452 42.07L74.4331 42.2874L74.2878 43.1477C74.2648 43.2839 74.3566 43.4129 74.4927 43.4358L75.7504 43.6482C75.8866 43.6712 76.0156 43.5795 76.0386 43.4433L76.1838 42.583L79.1696 43.0872C79.9594 43.2205 80.6353 43.1146 81.1603 42.7243Z" fill="#2E2E3B" stroke="#F8FCFB" stroke-width="0.5" stroke-linejoin="round"/>
<path d="M72.9288 53.5817L72.714 53.526C72.5804 53.4913 72.4439 53.5715 72.4092 53.7051L72.0682 55.019C72.0335 55.1527 72.1138 55.2891 72.2474 55.3238L78.1433 56.8541C78.2769 56.8888 78.4134 56.8086 78.4481 56.6749L78.8063 55.2948C78.841 55.1611 78.7608 55.0247 78.6271 54.99L75.646 54.2163C75.2741 54.1197 75.0043 53.9834 74.8197 53.8189C74.6264 53.6422 74.5062 53.4393 74.4511 53.2068C74.3942 52.9672 74.3993 52.7047 74.4746 52.4146C74.5765 52.022 74.7598 51.7795 75.0059 51.6444L75.0059 51.6444L75.0091 51.6426C75.2539 51.5034 75.6024 51.4689 76.0905 51.5956L79.2924 52.4266C79.4261 52.4613 79.5625 52.3811 79.5972 52.2475L79.9554 50.8673C79.9901 50.7337 79.9099 50.5972 79.7763 50.5626L76.3977 49.6857C75.7752 49.5241 75.2157 49.4974 74.7304 49.6279C74.2463 49.7542 73.842 50.001 73.526 50.3685C73.2178 50.7219 73.0008 51.1536 72.8703 51.6564C72.7281 52.2042 72.7092 52.728 72.8221 53.2233C72.8496 53.3474 72.8851 53.4669 72.9288 53.5817Z" fill="#2E2E3B" stroke="#F8FCFB" stroke-width="0.5" stroke-linejoin="round"/>
<path d="M63.9748 75.0178L63.9748 75.0178L63.9796 75.0169C64.5146 74.9109 65.0061 74.6675 65.4526 74.2936C65.8551 73.9566 66.1454 73.5641 66.3135 73.1155C66.3429 73.0372 66.3678 72.958 66.3883 72.8779L66.4913 73.0009C66.5799 73.1068 66.7376 73.1207 66.8435 73.0321L67.8106 72.2222C67.9165 72.1335 67.9304 71.9758 67.8418 71.87L62.7917 65.8395C62.7031 65.7337 62.5454 65.7197 62.4395 65.8083L61.4318 66.6523C61.3259 66.7409 61.312 66.8986 61.4006 67.0045L62.9097 68.8065C62.8402 68.8137 62.7708 68.8241 62.7016 68.8379C62.2324 68.9246 61.8009 69.1362 61.4087 69.4646C60.9622 69.8385 60.6363 70.2797 60.438 70.7878L60.438 70.7878L60.4374 70.7894C60.2448 71.2931 60.1961 71.8143 60.2911 72.348C60.3872 72.8874 60.6416 73.3961 61.0412 73.8732C61.4407 74.3503 61.8968 74.6901 62.411 74.8794C62.919 75.0664 63.4418 75.1127 63.9748 75.0178ZM64.9664 72.3336L64.9664 72.3336L64.9654 72.3364C64.8833 72.5582 64.7397 72.759 64.5252 72.9386C64.3113 73.1177 64.0853 73.2268 63.8456 73.2732C63.6137 73.3146 63.3737 73.2929 63.1211 73.2015C62.8816 73.1084 62.6569 72.9434 62.4486 72.6946C62.2346 72.4391 62.1129 72.1893 62.0679 71.9449C62.0219 71.6797 62.0426 71.4392 62.1243 71.2177C62.212 70.9899 62.3591 70.7865 62.573 70.6074C62.7875 70.4278 63.0104 70.3217 63.2431 70.2798L63.2431 70.2799L63.2461 70.2793C63.4833 70.2336 63.7218 70.2557 63.9667 70.3504L63.9667 70.3505L63.9741 70.3531C64.2107 70.4361 64.4366 70.5969 64.6497 70.8513C64.8575 71.0994 64.9775 71.3509 65.022 71.6068L65.022 71.6068L65.0229 71.6117C65.0731 71.8694 65.053 72.1081 64.9664 72.3336Z" fill="#2E2E3B" stroke="#F8FCFB" stroke-width="0.5" stroke-linejoin="round"/>
<path d="M72.405 66.2774L72.405 66.2775L72.4092 66.2757C72.9634 66.044 73.4585 65.6591 73.8964 65.1321C74.2408 64.7177 74.487 64.2888 74.6274 63.8452L74.6274 63.8452L74.6281 63.843C74.7665 63.3911 74.8003 62.943 74.7252 62.5022C74.7043 62.3799 74.597 62.2914 74.473 62.2942L73.3517 62.3198C73.2809 62.3214 73.2141 62.3529 73.1679 62.4066C73.1217 62.4603 73.1004 62.531 73.1094 62.6013C73.1429 62.8646 73.1197 63.1099 73.0427 63.3404C72.9643 63.575 72.8311 63.8092 72.637 64.0428C72.4143 64.3108 72.1727 64.497 71.9136 64.6108C71.6557 64.7241 71.3983 64.758 71.136 64.7165C71.0689 64.7059 71.0027 64.6904 70.9372 64.67L73.6673 61.3842C73.7487 61.2862 73.7435 61.1427 73.6551 61.051C73.6047 60.9987 73.5499 60.9479 73.4909 60.8983C73.4378 60.8449 73.3862 60.797 73.3361 60.7554C72.8357 60.3396 72.3038 60.0742 71.7412 59.9722C71.1836 59.8711 70.6417 59.9207 70.1208 60.1222C69.5994 60.3238 69.1443 60.6633 68.7551 61.1317C68.3565 61.6114 68.0997 62.1345 67.9933 62.6996L67.9933 62.6996L67.993 62.7013C67.8919 63.2586 67.9398 63.8069 68.1358 64.3414L68.1358 64.3415L68.1363 64.3427C68.3334 64.8717 68.6771 65.3352 69.1567 65.7337C69.6322 66.1288 70.1537 66.3784 70.7195 66.4739L70.7195 66.4739L70.7224 66.4744C71.291 66.5634 71.8534 66.4966 72.405 66.2774ZM71.567 61.7024L69.8301 63.7928C69.7855 63.7218 69.7487 63.6499 69.7195 63.5768C69.6262 63.3362 69.6007 63.0989 69.6393 62.8606C69.6821 62.6189 69.7938 62.3835 69.9849 62.1535C70.1712 61.9293 70.3769 61.7825 70.6012 61.7017L70.6012 61.7017L70.6041 61.7006C70.8389 61.6127 71.0774 61.5906 71.3243 61.6341C71.4061 61.6485 71.487 61.6711 71.567 61.7024Z" fill="#2E2E3B" stroke="#F8FCFB" stroke-width="0.5" stroke-linejoin="round"/>
<path d="M51.7173 79.2131L51.7173 79.2131L51.7211 79.2138C52.1993 79.3035 52.7075 79.2721 53.2414 79.1285C53.7375 78.995 54.1694 78.7626 54.5323 78.4301L54.5323 78.4301L54.5351 78.4275C54.6224 78.3451 54.7025 78.2584 54.7752 78.1675L54.8269 78.3596C54.8627 78.4929 54.9999 78.5719 55.1332 78.536L56.4566 78.18C56.59 78.1441 56.669 78.007 56.6331 77.8736L55.0354 71.9351C54.9995 71.8018 54.8624 71.7227 54.729 71.7586L53.3389 72.1326C53.2056 72.1685 53.1266 72.3056 53.1624 72.439L53.9703 75.4416C54.0685 75.8068 54.0806 76.1131 54.0229 76.368L54.0228 76.368L54.0217 76.3734C53.9695 76.6299 53.8576 76.8341 53.6885 76.9955L53.6884 76.9955L53.6861 76.9978C53.521 77.1596 53.2978 77.2837 53.0048 77.3625C52.6106 77.4686 52.3065 77.4295 52.065 77.282C51.8287 77.1253 51.628 76.8237 51.4932 76.3227L50.6315 73.1199C50.5957 72.9866 50.4585 72.9076 50.3252 72.9434L48.935 73.3174C48.8017 73.3533 48.7227 73.4905 48.7586 73.6238L49.6711 77.0157C49.8382 77.6366 50.0948 78.1422 50.4524 78.5159L50.4524 78.5159L50.4538 78.5173C50.8066 78.8801 51.2294 79.1138 51.7173 79.2131Z" fill="#2E2E3B" stroke="#F8FCFB" stroke-width="0.5" stroke-linejoin="round"/>
<path d="M40.0617 81.2942L40.0637 81.2961C40.5296 81.7378 41.1759 81.9439 41.9658 81.9484C42.2772 81.9501 42.5809 81.9105 42.876 81.8293C43.1761 81.7467 43.4387 81.6191 43.6575 81.4421C43.742 81.3738 43.7727 81.2588 43.7335 81.1575L43.2934 80.0199C43.2649 79.9462 43.2032 79.8903 43.1271 79.8692C43.0509 79.848 42.9693 79.8641 42.9069 79.9126C42.7196 80.0581 42.4788 80.1374 42.1672 80.1357C41.9244 80.1343 41.7626 80.0631 41.65 79.9448C41.5444 79.8254 41.4761 79.6422 41.4777 79.3614L41.4944 76.3717L43.0683 76.3805C43.2064 76.3812 43.3189 76.2699 43.3197 76.1319L43.3268 74.8564C43.3276 74.7183 43.2163 74.6057 43.0782 74.605L41.5043 74.5962L41.5116 73.2901C41.5124 73.152 41.4011 73.0395 41.263 73.0387L39.6686 73.0298C39.5306 73.029 39.418 73.1403 39.4172 73.2784L39.4099 74.5845L38.5375 74.5796C38.3994 74.5788 38.2869 74.6901 38.2861 74.8282L38.279 76.1037C38.2782 76.2418 38.3895 76.3543 38.5276 76.3551L39.4 76.36L39.3831 79.388C39.3786 80.1889 39.5919 80.8389 40.0617 81.2942Z" fill="#2E2E3B" stroke="#F8FCFB" stroke-width="0.5" stroke-linejoin="round"/>
<path d="M26.1157 78.0716L26.1157 78.0716L26.1198 78.0742C26.6042 78.3798 27.131 78.6188 27.6993 78.7916C28.3329 78.9843 28.9155 79.0693 29.4439 79.0378L29.4439 79.0378L29.4479 79.0375C29.9753 78.9975 30.4319 78.8532 30.8051 78.5924C31.1915 78.3307 31.4551 77.964 31.595 77.5039C31.7161 77.1057 31.7424 76.7338 31.6479 76.4004C31.5584 76.0848 31.3931 75.8115 31.1547 75.5843C30.9422 75.3664 30.6959 75.1729 30.4172 75.0032C30.1444 74.8372 29.861 74.6909 29.5671 74.5644C29.3007 74.4398 29.0622 74.3153 28.8513 74.1912C28.648 74.0714 28.5052 73.953 28.4121 73.8396C28.3543 73.7692 28.3331 73.6888 28.3716 73.5623C28.4052 73.4516 28.4874 73.3597 28.6878 73.3045C28.8929 73.2527 29.208 73.2739 29.6572 73.4105C29.9489 73.4992 30.2306 73.6226 30.5027 73.7812L30.5026 73.7813L30.5093 73.7849C30.7805 73.9321 31.0347 74.1358 31.2714 74.3996C31.3179 74.4514 31.3839 74.4815 31.4535 74.4826C31.5231 74.4837 31.59 74.4557 31.6381 74.4054L32.5812 73.4191C32.6713 73.325 32.6739 73.1775 32.5873 73.0802C32.3241 72.7843 31.9698 72.516 31.5332 72.2717C31.0983 72.0285 30.6511 71.8367 30.1917 71.697C29.5808 71.5113 29.0119 71.4354 28.4881 71.4783C27.9759 71.5154 27.5272 71.6639 27.1528 71.933C26.7746 72.1982 26.5158 72.5702 26.3744 73.0354C26.2512 73.4405 26.2231 73.8168 26.3178 74.1511C26.4062 74.463 26.562 74.7401 26.7833 74.9797L26.7832 74.9798L26.7878 74.9845C27.0011 75.2038 27.2486 75.3985 27.5288 75.5691L27.5287 75.5692L27.5359 75.5733C27.8157 75.7312 28.0955 75.8756 28.3753 76.0063L28.3762 76.0067C28.6542 76.1353 28.9013 76.2586 29.1177 76.3767C29.3215 76.4878 29.4626 76.6012 29.5536 76.7119L29.5534 76.7121L29.56 76.7194C29.619 76.7857 29.636 76.8515 29.6053 76.9524C29.5685 77.0736 29.4849 77.1623 29.2936 77.2091L29.2936 77.209L29.2895 77.2101C29.1071 77.2579 28.796 77.2357 28.3234 77.0919C27.9388 76.975 27.5706 76.8001 27.2184 76.566C26.862 76.3291 26.5762 76.0815 26.3569 75.8249C26.311 75.7712 26.2445 75.7394 26.1738 75.7374C26.1032 75.7354 26.035 75.7634 25.9862 75.8145L25.0431 76.8008C24.9569 76.8909 24.9503 77.0307 25.0276 77.1285C25.282 77.4506 25.6485 77.764 26.1157 78.0716Z" fill="#2E2E3B" stroke="#F8FCFB" stroke-width="0.5" stroke-linejoin="round"/>
<path d="M40.3634 40.9075C40.4103 40.9544 40.4739 40.9807 40.5402 40.9807C40.6065 40.9807 40.6701 40.9544 40.717 40.9075L41.2016 40.4228C41.2992 40.3252 41.2992 40.1669 41.2016 40.0693L40.6898 39.5575V37.7467C40.6898 37.6087 40.5779 37.4967 40.4398 37.4967H39.7544C39.6163 37.4967 39.5044 37.6087 39.5044 37.7467V39.803C39.5044 39.9602 39.5669 40.111 39.678 40.2221L39.678 40.2221L40.3634 40.9075ZM40.8752 36.7185C40.8752 36.8566 40.9872 36.9685 41.1252 36.9685H41.8107C41.9487 36.9685 42.0607 36.8566 42.0607 36.7185V34.6622V34.6622C42.0606 34.505 41.9982 34.3542 41.887 34.2431C41.887 34.2431 41.887 34.2431 41.887 34.2431L41.2016 33.5577C41.1547 33.5108 41.0911 33.4844 41.0248 33.4844C40.9585 33.4844 40.8949 33.5108 40.848 33.5577L40.3634 34.0423C40.2658 34.1399 40.2658 34.2982 40.3634 34.3959L40.8752 34.9076V36.7185ZM36.4199 45.6292C36.4199 45.7673 36.5318 45.8792 36.6699 45.8792H37.3553C37.4934 45.8792 37.6053 45.7673 37.6053 45.6292V44.5037L38.1171 43.9919C38.2148 43.8943 38.2148 43.736 38.1171 43.6384L37.6325 43.1537C37.5856 43.1068 37.5221 43.0805 37.4557 43.0805C37.3894 43.0805 37.3258 43.1068 37.279 43.1537L36.5936 43.8392C36.5935 43.8392 36.5935 43.8392 36.5935 43.8392C36.5385 43.8942 36.4948 43.9596 36.465 44.0315C36.4352 44.1034 36.4199 44.1805 36.4199 44.2584V45.6292ZM34.6136 42.9802C34.4755 42.9802 34.3636 43.0921 34.3636 43.2302V44.601C34.3636 44.7391 34.4755 44.851 34.6136 44.851H35.299C35.4371 44.851 35.549 44.7391 35.549 44.601V43.2302C35.549 43.0921 35.4371 42.9802 35.299 42.9802H34.6136ZM41.1252 37.154C40.9872 37.154 40.8752 37.2659 40.8752 37.404V38.0894C40.8752 38.2275 40.9872 38.3394 41.1252 38.3394H41.8107C41.9487 38.3394 42.0607 38.2275 42.0607 38.0894V37.404C42.0607 37.2659 41.9487 37.154 41.8107 37.154H41.1252ZM39.4116 41.952C39.2736 41.952 39.1616 42.0639 39.1616 42.202V42.8875C39.1616 43.0255 39.2736 43.1375 39.4116 43.1375H40.0971C40.2351 43.1375 40.3471 43.0255 40.3471 42.8875V42.202C40.3471 42.0639 40.2351 41.952 40.0971 41.952H39.4116ZM38.7262 44.0083C38.5881 44.0083 38.4762 44.1203 38.4762 44.2583V44.9438C38.4762 45.0818 38.5881 45.1938 38.7262 45.1938H39.4116C39.5497 45.1938 39.6616 45.0818 39.6616 44.9438V44.2583C39.6616 44.1203 39.5497 44.0083 39.4116 44.0083H38.7262ZM40.7825 45.7219C40.6444 45.7219 40.5325 45.8338 40.5325 45.9719V46.6573C40.5325 46.7954 40.6444 46.9073 40.7825 46.9073H41.4679C41.606 46.9073 41.7179 46.7954 41.7179 46.6573V45.9719C41.7179 45.8338 41.606 45.7219 41.4679 45.7219H40.7825Z" fill="#D86713" stroke="#D86713" stroke-width="0.5" stroke-linejoin="round"/>
<mask id="path-19-outside-1_918_151" maskUnits="userSpaceOnUse" x="31.5574" y="31.2632" width="23" height="23" fill="black">
<rect fill="white" x="31.5574" y="31.2632" width="23" height="23"/>
<path d="M50.4261 42.8828C50.5959 43.5518 51.2368 43.9902 51.9219 43.9059C52.6072 43.8217 53.1228 43.241 53.1256 42.5507C53.1283 41.8605 52.6174 41.2758 51.9328 41.1861C51.2484 41.0964 50.6039 41.5297 50.4287 42.1973H43.1816V39.4603H46.9515C47.0424 39.4603 47.1296 39.4241 47.1938 39.3599L48.4643 38.0894H49.3993C49.5718 38.7579 50.2145 39.1937 50.8993 39.1067C51.584 39.0197 52.0975 38.4371 52.0975 37.7467C52.0975 37.0564 51.5841 36.4737 50.8993 36.3868C50.2145 36.2999 49.5718 36.7356 49.3993 37.404H48.3224C48.2315 37.404 48.1444 37.4401 48.0801 37.5044L46.8096 38.7748H43.1816V36.3758H46.2661C46.357 36.3758 46.4441 36.3397 46.5084 36.2754L47.9732 34.8106C48.1821 34.9367 48.4212 35.0038 48.6651 35.005C49.4222 35.005 50.036 34.3913 50.036 33.6341C50.036 32.8771 49.4222 32.2632 48.6651 32.2632C47.9081 32.2632 47.2942 32.8771 47.2942 33.6341C47.2954 33.8781 47.3625 34.1172 47.4885 34.3261L46.1242 35.6904H43.1816V34.3196C43.1816 34.2417 43.1551 34.1662 43.1065 34.1054L41.7356 32.3918C41.7035 32.3517 41.6628 32.3193 41.6165 32.297C41.5701 32.2748 41.5194 32.2633 41.468 32.2632H39.069C39.0089 32.2629 38.9498 32.2786 38.8977 32.3086L36.4986 33.6794C36.4464 33.7096 36.4031 33.7529 36.373 33.8051C36.3429 33.8573 36.3272 33.9166 36.3273 33.9768V35.1901L34.0479 37.1436C34.0103 37.1757 33.9802 37.2157 33.9595 37.2607C33.9388 37.3056 33.9282 37.3545 33.9282 37.404V40.6598L32.6945 41.5852C32.6519 41.6171 32.6174 41.6585 32.5936 41.7061C32.5698 41.7537 32.5574 41.8062 32.5574 41.8594V45.2865C32.5574 45.3852 32.6 45.4793 32.6742 45.5442L35.2991 47.8411V50.0845C35.2991 50.156 35.3214 50.2256 35.3629 50.2837L37.0765 52.6827C37.1081 52.7271 37.15 52.7634 37.1985 52.7883C37.247 52.8133 37.3008 52.8263 37.3554 52.8263H40.7826C40.8628 52.8263 40.9404 52.7981 41.002 52.7468L43.0583 51.0332C43.0969 51.001 43.1279 50.9608 43.1493 50.9153C43.1706 50.8699 43.1816 50.8202 43.1816 50.77V49.3992H46.1242L47.4885 50.7635C47.3626 50.9724 47.2954 51.2115 47.2942 51.4555C47.2942 52.2127 47.9081 52.8263 48.6651 52.8263C49.4222 52.8263 50.036 52.2127 50.036 51.4555C50.036 50.6984 49.4222 50.0846 48.6651 50.0846C48.4212 50.0858 48.1821 50.153 47.9732 50.279L46.5084 48.8141C46.4441 48.7498 46.357 48.7137 46.2661 48.7137H43.1816V46.3147H46.8096L48.0801 47.5851C48.1444 47.6494 48.2315 47.6855 48.3224 47.6856H49.3993C49.5718 48.3541 50.2145 48.7898 50.8993 48.7028C51.584 48.6158 52.0975 48.0332 52.0975 47.3428C52.0975 46.6525 51.5841 46.0699 50.8993 45.983C50.2145 45.896 49.5718 46.3317 49.3993 47.0001H48.4643L47.1938 45.7296C47.1296 45.6654 47.0424 45.6293 46.9515 45.6293H43.1816V42.8828H50.4261ZM51.7496 41.8593C52.1281 41.8593 52.435 42.1662 52.435 42.5447C52.435 42.9232 52.1281 43.2301 51.7496 43.2301C51.371 43.2301 51.0641 42.9232 51.0641 42.5447C51.0641 42.1662 51.371 41.8593 51.7496 41.8593ZM50.7214 37.0612C51.1 37.0612 51.4069 37.3681 51.4069 37.7467C51.4069 38.1252 51.1 38.4321 50.7214 38.4321C50.3429 38.4321 50.036 38.1252 50.036 37.7467C50.036 37.3681 50.3429 37.0612 50.7214 37.0612ZM48.6651 32.9486C49.0437 32.9486 49.3506 33.2555 49.3506 33.634C49.3506 34.0126 49.0437 34.3195 48.6651 34.3195C48.2866 34.3195 47.9797 34.0126 47.9797 33.634C47.9797 33.2555 48.2866 32.9486 48.6651 32.9486ZM49.3506 51.4554C49.3506 51.8339 49.0437 52.1408 48.6651 52.1408C48.2866 52.1408 47.9797 51.8339 47.9797 51.4554C47.9797 51.0768 48.2866 50.7699 48.6651 50.7699C49.0437 50.7699 49.3506 51.0768 49.3506 51.4554ZM50.7214 46.6573C51.1 46.6573 51.4069 46.9642 51.4069 47.3428C51.4069 47.7213 51.1 48.0282 50.7214 48.0282C50.3429 48.0282 50.036 47.7213 50.036 47.3428C50.036 46.9642 50.3429 46.6573 50.7214 46.6573ZM40.6586 52.1408H39.7545V50.4272C39.7544 50.3363 39.7183 50.2491 39.654 50.1849L38.9686 49.4994L38.484 49.9841L39.069 50.5691V52.1408H37.532L35.9846 49.9749V47.8274L36.4692 47.3428H37.7612C37.9281 47.815 38.4109 48.0982 38.9043 48.0135C39.398 47.9288 39.7587 47.5009 39.7587 47.0001C39.7587 46.4994 39.398 46.0715 38.9043 45.9868C38.4108 45.9021 37.9281 46.1853 37.7612 46.6574H36.3273C36.2364 46.6574 36.1492 46.6935 36.085 46.7577L35.6264 47.2165L33.2428 45.131V42.0307L34.2641 41.2647L35.7704 42.4698C35.8312 42.5184 35.9067 42.5449 35.9846 42.5448H37.0127C37.1036 42.5448 37.1907 42.5086 37.255 42.4444L37.9431 41.7566C38.0803 41.8237 38.2309 41.8588 38.3836 41.8594C38.9514 41.8594 39.4117 41.3991 39.4117 40.8312C39.4117 40.2634 38.9514 39.803 38.3836 39.803C37.8158 39.803 37.3554 40.2634 37.3554 40.8312C37.3561 40.9839 37.3912 41.1344 37.4582 41.2716L36.8708 41.8594H36.1048L34.6137 40.6667V37.5616L34.9907 37.2381L35.6418 37.8893V39.1176H36.3273V37.7467C36.3273 37.6558 36.2911 37.5686 36.2269 37.5044L35.5133 36.7905L36.6523 35.8145L37.4558 36.6181C37.5201 36.6824 37.6073 36.7185 37.6981 36.7185H38.104C38.2708 37.1908 38.7536 37.4739 39.2471 37.3892C39.7407 37.3045 40.1014 36.8767 40.1014 36.3758C40.1014 35.8751 39.7407 35.4472 39.2471 35.3625C38.7535 35.2779 38.2708 35.561 38.104 36.0331H37.8401L37.0127 35.2057V34.1756L39.1602 32.9487H41.3035L42.4962 34.4398V40.8312H41.8012C41.7103 40.8312 41.6232 40.8673 41.5589 40.9316L40.883 41.6075C40.8187 41.6718 40.7826 41.7589 40.7826 41.8498V43.0689L40.188 43.6638L40.6727 44.1484L41.3676 43.4531C41.4319 43.3889 41.468 43.3017 41.468 43.2108V41.9917L41.9431 41.5166H42.4962V50.0845L41.8108 49.5705V47.6855H41.1253V49.7418C41.1253 49.795 41.1377 49.8475 41.1615 49.8951C41.1853 49.9428 41.2199 49.9842 41.2624 50.0161L42.2868 50.7841L40.6586 52.1408ZM38.3836 47C38.3836 46.9091 38.4197 46.822 38.484 46.7577C38.5482 46.6934 38.6354 46.6573 38.7263 46.6573C38.8172 46.6573 38.9044 46.6934 38.9686 46.7577C39.0329 46.822 39.069 46.9091 39.069 47C39.069 47.0909 39.0329 47.1781 38.9686 47.2424C38.9044 47.3066 38.8172 47.3428 38.7263 47.3428C38.6354 47.3428 38.5482 47.3066 38.484 47.2424C38.4197 47.1781 38.3836 47.0909 38.3836 47ZM38.0409 40.8311C38.0409 40.7402 38.077 40.653 38.1412 40.5888C38.2055 40.5245 38.2927 40.4884 38.3836 40.4884C38.4745 40.4884 38.5616 40.5245 38.6259 40.5888C38.6902 40.653 38.7263 40.7402 38.7263 40.8311C38.7263 40.922 38.6902 41.0092 38.6259 41.0735C38.5616 41.1377 38.4745 41.1738 38.3836 41.1738C38.2927 41.1738 38.2055 41.1377 38.1412 41.0735C38.077 41.0092 38.0409 40.922 38.0409 40.8311ZM38.7263 36.3758C38.7263 36.2849 38.7624 36.1977 38.8267 36.1334C38.8909 36.0692 38.9781 36.0331 39.069 36.0331C39.1599 36.0331 39.2471 36.0692 39.3114 36.1334C39.3756 36.1977 39.4117 36.2849 39.4117 36.3758C39.4117 36.4667 39.3756 36.5538 39.3114 36.6181C39.2471 36.6824 39.1599 36.7185 39.069 36.7185C38.9781 36.7185 38.8909 36.6824 38.8267 36.6181C38.7624 36.5538 38.7263 36.4667 38.7263 36.3758Z"/>
<path d="M40.6586 52.1408H39.7545V50.4272C39.7544 50.3363 39.7183 50.2491 39.654 50.1849L38.9686 49.4994L38.484 49.9841L39.069 50.5691V52.1408H37.532L35.9846 49.9749V47.8274L36.4692 47.3428H37.7612C37.9281 47.815 38.4109 48.0982 38.9043 48.0135C39.398 47.9288 39.7587 47.5009 39.7587 47.0001C39.7587 46.4994 39.398 46.0715 38.9043 45.9868C38.4108 45.9021 37.9281 46.1853 37.7612 46.6574H36.3273C36.2364 46.6574 36.1492 46.6935 36.085 46.7577L35.6264 47.2165L33.2428 45.131V42.0307L34.2641 41.2647L35.7704 42.4698C35.8312 42.5184 35.9067 42.5449 35.9846 42.5448H37.0127C37.1036 42.5448 37.1907 42.5086 37.255 42.4444L37.9431 41.7566C38.0803 41.8237 38.2309 41.8588 38.3836 41.8594C38.9514 41.8594 39.4117 41.3991 39.4117 40.8312C39.4117 40.2634 38.9514 39.803 38.3836 39.803C37.8158 39.803 37.3554 40.2634 37.3554 40.8312C37.3561 40.9839 37.3912 41.1344 37.4582 41.2716L36.8708 41.8594H36.1048L34.6137 40.6667V37.5616L34.9907 37.2381L35.6418 37.8893V39.1176H36.3273V37.7467C36.3273 37.6558 36.2911 37.5686 36.2269 37.5044L35.5133 36.7905L36.6523 35.8145L37.4558 36.6181C37.5201 36.6824 37.6073 36.7185 37.6981 36.7185H38.104C38.2708 37.1908 38.7536 37.4739 39.2471 37.3892C39.7407 37.3045 40.1014 36.8767 40.1014 36.3758C40.1014 35.8751 39.7407 35.4472 39.2471 35.3625C38.7535 35.2779 38.2708 35.561 38.104 36.0331H37.8401L37.0127 35.2057V34.1756L39.1602 32.9487H41.3035L42.4962 34.4398V40.8312H41.8012C41.7103 40.8312 41.6232 40.8673 41.5589 40.9316L40.883 41.6075C40.8187 41.6718 40.7826 41.7589 40.7826 41.8498V43.0689L40.188 43.6638L40.6727 44.1484L41.3676 43.4531C41.4319 43.3889 41.468 43.3017 41.468 43.2108V41.9917L41.9431 41.5166H42.4962V50.0845L41.8108 49.5705V47.6855H41.1253V49.7418C41.1253 49.795 41.1377 49.8475 41.1615 49.8951C41.1853 49.9428 41.2199 49.9842 41.2624 50.0161L42.2868 50.7841L40.6586 52.1408Z"/>
</mask>
<path d="M50.4261 42.8828C50.5959 43.5518 51.2368 43.9902 51.9219 43.9059C52.6072 43.8217 53.1228 43.241 53.1256 42.5507C53.1283 41.8605 52.6174 41.2758 51.9328 41.1861C51.2484 41.0964 50.6039 41.5297 50.4287 42.1973H43.1816V39.4603H46.9515C47.0424 39.4603 47.1296 39.4241 47.1938 39.3599L48.4643 38.0894H49.3993C49.5718 38.7579 50.2145 39.1937 50.8993 39.1067C51.584 39.0197 52.0975 38.4371 52.0975 37.7467C52.0975 37.0564 51.5841 36.4737 50.8993 36.3868C50.2145 36.2999 49.5718 36.7356 49.3993 37.404H48.3224C48.2315 37.404 48.1444 37.4401 48.0801 37.5044L46.8096 38.7748H43.1816V36.3758H46.2661C46.357 36.3758 46.4441 36.3397 46.5084 36.2754L47.9732 34.8106C48.1821 34.9367 48.4212 35.0038 48.6651 35.005C49.4222 35.005 50.036 34.3913 50.036 33.6341C50.036 32.8771 49.4222 32.2632 48.6651 32.2632C47.9081 32.2632 47.2942 32.8771 47.2942 33.6341C47.2954 33.8781 47.3625 34.1172 47.4885 34.3261L46.1242 35.6904H43.1816V34.3196C43.1816 34.2417 43.1551 34.1662 43.1065 34.1054L41.7356 32.3918C41.7035 32.3517 41.6628 32.3193 41.6165 32.297C41.5701 32.2748 41.5194 32.2633 41.468 32.2632H39.069C39.0089 32.2629 38.9498 32.2786 38.8977 32.3086L36.4986 33.6794C36.4464 33.7096 36.4031 33.7529 36.373 33.8051C36.3429 33.8573 36.3272 33.9166 36.3273 33.9768V35.1901L34.0479 37.1436C34.0103 37.1757 33.9802 37.2157 33.9595 37.2607C33.9388 37.3056 33.9282 37.3545 33.9282 37.404V40.6598L32.6945 41.5852C32.6519 41.6171 32.6174 41.6585 32.5936 41.7061C32.5698 41.7537 32.5574 41.8062 32.5574 41.8594V45.2865C32.5574 45.3852 32.6 45.4793 32.6742 45.5442L35.2991 47.8411V50.0845C35.2991 50.156 35.3214 50.2256 35.3629 50.2837L37.0765 52.6827C37.1081 52.7271 37.15 52.7634 37.1985 52.7883C37.247 52.8133 37.3008 52.8263 37.3554 52.8263H40.7826C40.8628 52.8263 40.9404 52.7981 41.002 52.7468L43.0583 51.0332C43.0969 51.001 43.1279 50.9608 43.1493 50.9153C43.1706 50.8699 43.1816 50.8202 43.1816 50.77V49.3992H46.1242L47.4885 50.7635C47.3626 50.9724 47.2954 51.2115 47.2942 51.4555C47.2942 52.2127 47.9081 52.8263 48.6651 52.8263C49.4222 52.8263 50.036 52.2127 50.036 51.4555C50.036 50.6984 49.4222 50.0846 48.6651 50.0846C48.4212 50.0858 48.1821 50.153 47.9732 50.279L46.5084 48.8141C46.4441 48.7498 46.357 48.7137 46.2661 48.7137H43.1816V46.3147H46.8096L48.0801 47.5851C48.1444 47.6494 48.2315 47.6855 48.3224 47.6856H49.3993C49.5718 48.3541 50.2145 48.7898 50.8993 48.7028C51.584 48.6158 52.0975 48.0332 52.0975 47.3428C52.0975 46.6525 51.5841 46.0699 50.8993 45.983C50.2145 45.896 49.5718 46.3317 49.3993 47.0001H48.4643L47.1938 45.7296C47.1296 45.6654 47.0424 45.6293 46.9515 45.6293H43.1816V42.8828H50.4261ZM51.7496 41.8593C52.1281 41.8593 52.435 42.1662 52.435 42.5447C52.435 42.9232 52.1281 43.2301 51.7496 43.2301C51.371 43.2301 51.0641 42.9232 51.0641 42.5447C51.0641 42.1662 51.371 41.8593 51.7496 41.8593ZM50.7214 37.0612C51.1 37.0612 51.4069 37.3681 51.4069 37.7467C51.4069 38.1252 51.1 38.4321 50.7214 38.4321C50.3429 38.4321 50.036 38.1252 50.036 37.7467C50.036 37.3681 50.3429 37.0612 50.7214 37.0612ZM48.6651 32.9486C49.0437 32.9486 49.3506 33.2555 49.3506 33.634C49.3506 34.0126 49.0437 34.3195 48.6651 34.3195C48.2866 34.3195 47.9797 34.0126 47.9797 33.634C47.9797 33.2555 48.2866 32.9486 48.6651 32.9486ZM49.3506 51.4554C49.3506 51.8339 49.0437 52.1408 48.6651 52.1408C48.2866 52.1408 47.9797 51.8339 47.9797 51.4554C47.9797 51.0768 48.2866 50.7699 48.6651 50.7699C49.0437 50.7699 49.3506 51.0768 49.3506 51.4554ZM50.7214 46.6573C51.1 46.6573 51.4069 46.9642 51.4069 47.3428C51.4069 47.7213 51.1 48.0282 50.7214 48.0282C50.3429 48.0282 50.036 47.7213 50.036 47.3428C50.036 46.9642 50.3429 46.6573 50.7214 46.6573ZM40.6586 52.1408H39.7545V50.4272C39.7544 50.3363 39.7183 50.2491 39.654 50.1849L38.9686 49.4994L38.484 49.9841L39.069 50.5691V52.1408H37.532L35.9846 49.9749V47.8274L36.4692 47.3428H37.7612C37.9281 47.815 38.4109 48.0982 38.9043 48.0135C39.398 47.9288 39.7587 47.5009 39.7587 47.0001C39.7587 46.4994 39.398 46.0715 38.9043 45.9868C38.4108 45.9021 37.9281 46.1853 37.7612 46.6574H36.3273C36.2364 46.6574 36.1492 46.6935 36.085 46.7577L35.6264 47.2165L33.2428 45.131V42.0307L34.2641 41.2647L35.7704 42.4698C35.8312 42.5184 35.9067 42.5449 35.9846 42.5448H37.0127C37.1036 42.5448 37.1907 42.5086 37.255 42.4444L37.9431 41.7566C38.0803 41.8237 38.2309 41.8588 38.3836 41.8594C38.9514 41.8594 39.4117 41.3991 39.4117 40.8312C39.4117 40.2634 38.9514 39.803 38.3836 39.803C37.8158 39.803 37.3554 40.2634 37.3554 40.8312C37.3561 40.9839 37.3912 41.1344 37.4582 41.2716L36.8708 41.8594H36.1048L34.6137 40.6667V37.5616L34.9907 37.2381L35.6418 37.8893V39.1176H36.3273V37.7467C36.3273 37.6558 36.2911 37.5686 36.2269 37.5044L35.5133 36.7905L36.6523 35.8145L37.4558 36.6181C37.5201 36.6824 37.6073 36.7185 37.6981 36.7185H38.104C38.2708 37.1908 38.7536 37.4739 39.2471 37.3892C39.7407 37.3045 40.1014 36.8767 40.1014 36.3758C40.1014 35.8751 39.7407 35.4472 39.2471 35.3625C38.7535 35.2779 38.2708 35.561 38.104 36.0331H37.8401L37.0127 35.2057V34.1756L39.1602 32.9487H41.3035L42.4962 34.4398V40.8312H41.8012C41.7103 40.8312 41.6232 40.8673 41.5589 40.9316L40.883 41.6075C40.8187 41.6718 40.7826 41.7589 40.7826 41.8498V43.0689L40.188 43.6638L40.6727 44.1484L41.3676 43.4531C41.4319 43.3889 41.468 43.3017 41.468 43.2108V41.9917L41.9431 41.5166H42.4962V50.0845L41.8108 49.5705V47.6855H41.1253V49.7418C41.1253 49.795 41.1377 49.8475 41.1615 49.8951C41.1853 49.9428 41.2199 49.9842 41.2624 50.0161L42.2868 50.7841L40.6586 52.1408ZM38.3836 47C38.3836 46.9091 38.4197 46.822 38.484 46.7577C38.5482 46.6934 38.6354 46.6573 38.7263 46.6573C38.8172 46.6573 38.9044 46.6934 38.9686 46.7577C39.0329 46.822 39.069 46.9091 39.069 47C39.069 47.0909 39.0329 47.1781 38.9686 47.2424C38.9044 47.3066 38.8172 47.3428 38.7263 47.3428C38.6354 47.3428 38.5482 47.3066 38.484 47.2424C38.4197 47.1781 38.3836 47.0909 38.3836 47ZM38.0409 40.8311C38.0409 40.7402 38.077 40.653 38.1412 40.5888C38.2055 40.5245 38.2927 40.4884 38.3836 40.4884C38.4745 40.4884 38.5616 40.5245 38.6259 40.5888C38.6902 40.653 38.7263 40.7402 38.7263 40.8311C38.7263 40.922 38.6902 41.0092 38.6259 41.0735C38.5616 41.1377 38.4745 41.1738 38.3836 41.1738C38.2927 41.1738 38.2055 41.1377 38.1412 41.0735C38.077 41.0092 38.0409 40.922 38.0409 40.8311ZM38.7263 36.3758C38.7263 36.2849 38.7624 36.1977 38.8267 36.1334C38.8909 36.0692 38.9781 36.0331 39.069 36.0331C39.1599 36.0331 39.2471 36.0692 39.3114 36.1334C39.3756 36.1977 39.4117 36.2849 39.4117 36.3758C39.4117 36.4667 39.3756 36.5538 39.3114 36.6181C39.2471 36.6824 39.1599 36.7185 39.069 36.7185C38.9781 36.7185 38.8909 36.6824 38.8267 36.6181C38.7624 36.5538 38.7263 36.4667 38.7263 36.3758Z" fill="#2E2E3B"/>
<path d="M40.6586 52.1408H39.7545V50.4272C39.7544 50.3363 39.7183 50.2491 39.654 50.1849L38.9686 49.4994L38.484 49.9841L39.069 50.5691V52.1408H37.532L35.9846 49.9749V47.8274L36.4692 47.3428H37.7612C37.9281 47.815 38.4109 48.0982 38.9043 48.0135C39.398 47.9288 39.7587 47.5009 39.7587 47.0001C39.7587 46.4994 39.398 46.0715 38.9043 45.9868C38.4108 45.9021 37.9281 46.1853 37.7612 46.6574H36.3273C36.2364 46.6574 36.1492 46.6935 36.085 46.7577L35.6264 47.2165L33.2428 45.131V42.0307L34.2641 41.2647L35.7704 42.4698C35.8312 42.5184 35.9067 42.5449 35.9846 42.5448H37.0127C37.1036 42.5448 37.1907 42.5086 37.255 42.4444L37.9431 41.7566C38.0803 41.8237 38.2309 41.8588 38.3836 41.8594C38.9514 41.8594 39.4117 41.3991 39.4117 40.8312C39.4117 40.2634 38.9514 39.803 38.3836 39.803C37.8158 39.803 37.3554 40.2634 37.3554 40.8312C37.3561 40.9839 37.3912 41.1344 37.4582 41.2716L36.8708 41.8594H36.1048L34.6137 40.6667V37.5616L34.9907 37.2381L35.6418 37.8893V39.1176H36.3273V37.7467C36.3273 37.6558 36.2911 37.5686 36.2269 37.5044L35.5133 36.7905L36.6523 35.8145L37.4558 36.6181C37.5201 36.6824 37.6073 36.7185 37.6981 36.7185H38.104C38.2708 37.1908 38.7536 37.4739 39.2471 37.3892C39.7407 37.3045 40.1014 36.8767 40.1014 36.3758C40.1014 35.8751 39.7407 35.4472 39.2471 35.3625C38.7535 35.2779 38.2708 35.561 38.104 36.0331H37.8401L37.0127 35.2057V34.1756L39.1602 32.9487H41.3035L42.4962 34.4398V40.8312H41.8012C41.7103 40.8312 41.6232 40.8673 41.5589 40.9316L40.883 41.6075C40.8187 41.6718 40.7826 41.7589 40.7826 41.8498V43.0689L40.188 43.6638L40.6727 44.1484L41.3676 43.4531C41.4319 43.3889 41.468 43.3017 41.468 43.2108V41.9917L41.9431 41.5166H42.4962V50.0845L41.8108 49.5705V47.6855H41.1253V49.7418C41.1253 49.795 41.1377 49.8475 41.1615 49.8951C41.1853 49.9428 41.2199 49.9842 41.2624 50.0161L42.2868 50.7841L40.6586 52.1408Z" fill="#F99746" fill-opacity="0.6"/>
<path d="M50.4261 42.8828C50.5959 43.5518 51.2368 43.9902 51.9219 43.9059C52.6072 43.8217 53.1228 43.241 53.1256 42.5507C53.1283 41.8605 52.6174 41.2758 51.9328 41.1861C51.2484 41.0964 50.6039 41.5297 50.4287 42.1973H43.1816V39.4603H46.9515C47.0424 39.4603 47.1296 39.4241 47.1938 39.3599L48.4643 38.0894H49.3993C49.5718 38.7579 50.2145 39.1937 50.8993 39.1067C51.584 39.0197 52.0975 38.4371 52.0975 37.7467C52.0975 37.0564 51.5841 36.4737 50.8993 36.3868C50.2145 36.2999 49.5718 36.7356 49.3993 37.404H48.3224C48.2315 37.404 48.1444 37.4401 48.0801 37.5044L46.8096 38.7748H43.1816V36.3758H46.2661C46.357 36.3758 46.4441 36.3397 46.5084 36.2754L47.9732 34.8106C48.1821 34.9367 48.4212 35.0038 48.6651 35.005C49.4222 35.005 50.036 34.3913 50.036 33.6341C50.036 32.8771 49.4222 32.2632 48.6651 32.2632C47.9081 32.2632 47.2942 32.8771 47.2942 33.6341C47.2954 33.8781 47.3625 34.1172 47.4885 34.3261L46.1242 35.6904H43.1816V34.3196C43.1816 34.2417 43.1551 34.1662 43.1065 34.1054L41.7356 32.3918C41.7035 32.3517 41.6628 32.3193 41.6165 32.297C41.5701 32.2748 41.5194 32.2633 41.468 32.2632H39.069C39.0089 32.2629 38.9498 32.2786 38.8977 32.3086L36.4986 33.6794C36.4464 33.7096 36.4031 33.7529 36.373 33.8051C36.3429 33.8573 36.3272 33.9166 36.3273 33.9768V35.1901L34.0479 37.1436C34.0103 37.1757 33.9802 37.2157 33.9595 37.2607C33.9388 37.3056 33.9282 37.3545 33.9282 37.404V40.6598L32.6945 41.5852C32.6519 41.6171 32.6174 41.6585 32.5936 41.7061C32.5698 41.7537 32.5574 41.8062 32.5574 41.8594V45.2865C32.5574 45.3852 32.6 45.4793 32.6742 45.5442L35.2991 47.8411V50.0845C35.2991 50.156 35.3214 50.2256 35.3629 50.2837L37.0765 52.6827C37.1081 52.7271 37.15 52.7634 37.1985 52.7883C37.247 52.8133 37.3008 52.8263 37.3554 52.8263H40.7826C40.8628 52.8263 40.9404 52.7981 41.002 52.7468L43.0583 51.0332C43.0969 51.001 43.1279 50.9608 43.1493 50.9153C43.1706 50.8699 43.1816 50.8202 43.1816 50.77V49.3992H46.1242L47.4885 50.7635C47.3626 50.9724 47.2954 51.2115 47.2942 51.4555C47.2942 52.2127 47.9081 52.8263 48.6651 52.8263C49.4222 52.8263 50.036 52.2127 50.036 51.4555C50.036 50.6984 49.4222 50.0846 48.6651 50.0846C48.4212 50.0858 48.1821 50.153 47.9732 50.279L46.5084 48.8141C46.4441 48.7498 46.357 48.7137 46.2661 48.7137H43.1816V46.3147H46.8096L48.0801 47.5851C48.1444 47.6494 48.2315 47.6855 48.3224 47.6856H49.3993C49.5718 48.3541 50.2145 48.7898 50.8993 48.7028C51.584 48.6158 52.0975 48.0332 52.0975 47.3428C52.0975 46.6525 51.5841 46.0699 50.8993 45.983C50.2145 45.896 49.5718 46.3317 49.3993 47.0001H48.4643L47.1938 45.7296C47.1296 45.6654 47.0424 45.6293 46.9515 45.6293H43.1816V42.8828H50.4261ZM51.7496 41.8593C52.1281 41.8593 52.435 42.1662 52.435 42.5447C52.435 42.9232 52.1281 43.2301 51.7496 43.2301C51.371 43.2301 51.0641 42.9232 51.0641 42.5447C51.0641 42.1662 51.371 41.8593 51.7496 41.8593ZM50.7214 37.0612C51.1 37.0612 51.4069 37.3681 51.4069 37.7467C51.4069 38.1252 51.1 38.4321 50.7214 38.4321C50.3429 38.4321 50.036 38.1252 50.036 37.7467C50.036 37.3681 50.3429 37.0612 50.7214 37.0612ZM48.6651 32.9486C49.0437 32.9486 49.3506 33.2555 49.3506 33.634C49.3506 34.0126 49.0437 34.3195 48.6651 34.3195C48.2866 34.3195 47.9797 34.0126 47.9797 33.634C47.9797 33.2555 48.2866 32.9486 48.6651 32.9486ZM49.3506 51.4554C49.3506 51.8339 49.0437 52.1408 48.6651 52.1408C48.2866 52.1408 47.9797 51.8339 47.9797 51.4554C47.9797 51.0768 48.2866 50.7699 48.6651 50.7699C49.0437 50.7699 49.3506 51.0768 49.3506 51.4554ZM50.7214 46.6573C51.1 46.6573 51.4069 46.9642 51.4069 47.3428C51.4069 47.7213 51.1 48.0282 50.7214 48.0282C50.3429 48.0282 50.036 47.7213 50.036 47.3428C50.036 46.9642 50.3429 46.6573 50.7214 46.6573ZM40.6586 52.1408H39.7545V50.4272C39.7544 50.3363 39.7183 50.2491 39.654 50.1849L38.9686 49.4994L38.484 49.9841L39.069 50.5691V52.1408H37.532L35.9846 49.9749V47.8274L36.4692 47.3428H37.7612C37.9281 47.815 38.4109 48.0982 38.9043 48.0135C39.398 47.9288 39.7587 47.5009 39.7587 47.0001C39.7587 46.4994 39.398 46.0715 38.9043 45.9868C38.4108 45.9021 37.9281 46.1853 37.7612 46.6574H36.3273C36.2364 46.6574 36.1492 46.6935 36.085 46.7577L35.6264 47.2165L33.2428 45.131V42.0307L34.2641 41.2647L35.7704 42.4698C35.8312 42.5184 35.9067 42.5449 35.9846 42.5448H37.0127C37.1036 42.5448 37.1907 42.5086 37.255 42.4444L37.9431 41.7566C38.0803 41.8237 38.2309 41.8588 38.3836 41.8594C38.9514 41.8594 39.4117 41.3991 39.4117 40.8312C39.4117 40.2634 38.9514 39.803 38.3836 39.803C37.8158 39.803 37.3554 40.2634 37.3554 40.8312C37.3561 40.9839 37.3912 41.1344 37.4582 41.2716L36.8708 41.8594H36.1048L34.6137 40.6667V37.5616L34.9907 37.2381L35.6418 37.8893V39.1176H36.3273V37.7467C36.3273 37.6558 36.2911 37.5686 36.2269 37.5044L35.5133 36.7905L36.6523 35.8145L37.4558 36.6181C37.5201 36.6824 37.6073 36.7185 37.6981 36.7185H38.104C38.2708 37.1908 38.7536 37.4739 39.2471 37.3892C39.7407 37.3045 40.1014 36.8767 40.1014 36.3758C40.1014 35.8751 39.7407 35.4472 39.2471 35.3625C38.7535 35.2779 38.2708 35.561 38.104 36.0331H37.8401L37.0127 35.2057V34.1756L39.1602 32.9487H41.3035L42.4962 34.4398V40.8312H41.8012C41.7103 40.8312 41.6232 40.8673 41.5589 40.9316L40.883 41.6075C40.8187 41.6718 40.7826 41.7589 40.7826 41.8498V43.0689L40.188 43.6638L40.6727 44.1484L41.3676 43.4531C41.4319 43.3889 41.468 43.3017 41.468 43.2108V41.9917L41.9431 41.5166H42.4962V50.0845L41.8108 49.5705V47.6855H41.1253V49.7418C41.1253 49.795 41.1377 49.8475 41.1615 49.8951C41.1853 49.9428 41.2199 49.9842 41.2624 50.0161L42.2868 50.7841L40.6586 52.1408ZM38.3836 47C38.3836 46.9091 38.4197 46.822 38.484 46.7577C38.5482 46.6934 38.6354 46.6573 38.7263 46.6573C38.8172 46.6573 38.9044 46.6934 38.9686 46.7577C39.0329 46.822 39.069 46.9091 39.069 47C39.069 47.0909 39.0329 47.1781 38.9686 47.2424C38.9044 47.3066 38.8172 47.3428 38.7263 47.3428C38.6354 47.3428 38.5482 47.3066 38.484 47.2424C38.4197 47.1781 38.3836 47.0909 38.3836 47ZM38.0409 40.8311C38.0409 40.7402 38.077 40.653 38.1412 40.5888C38.2055 40.5245 38.2927 40.4884 38.3836 40.4884C38.4745 40.4884 38.5616 40.5245 38.6259 40.5888C38.6902 40.653 38.7263 40.7402 38.7263 40.8311C38.7263 40.922 38.6902 41.0092 38.6259 41.0735C38.5616 41.1377 38.4745 41.1738 38.3836 41.1738C38.2927 41.1738 38.2055 41.1377 38.1412 41.0735C38.077 41.0092 38.0409 40.922 38.0409 40.8311ZM38.7263 36.3758C38.7263 36.2849 38.7624 36.1977 38.8267 36.1334C38.8909 36.0692 38.9781 36.0331 39.069 36.0331C39.1599 36.0331 39.2471 36.0692 39.3114 36.1334C39.3756 36.1977 39.4117 36.2849 39.4117 36.3758C39.4117 36.4667 39.3756 36.5538 39.3114 36.6181C39.2471 36.6824 39.1599 36.7185 39.069 36.7185C38.9781 36.7185 38.8909 36.6824 38.8267 36.6181C38.7624 36.5538 38.7263 36.4667 38.7263 36.3758Z" stroke="#2E2E3B" stroke-linejoin="round" mask="url(#path-19-outside-1_918_151)"/>
<path d="M40.6586 52.1408H39.7545V50.4272C39.7544 50.3363 39.7183 50.2491 39.654 50.1849L38.9686 49.4994L38.484 49.9841L39.069 50.5691V52.1408H37.532L35.9846 49.9749V47.8274L36.4692 47.3428H37.7612C37.9281 47.815 38.4109 48.0982 38.9043 48.0135C39.398 47.9288 39.7587 47.5009 39.7587 47.0001C39.7587 46.4994 39.398 46.0715 38.9043 45.9868C38.4108 45.9021 37.9281 46.1853 37.7612 46.6574H36.3273C36.2364 46.6574 36.1492 46.6935 36.085 46.7577L35.6264 47.2165L33.2428 45.131V42.0307L34.2641 41.2647L35.7704 42.4698C35.8312 42.5184 35.9067 42.5449 35.9846 42.5448H37.0127C37.1036 42.5448 37.1907 42.5086 37.255 42.4444L37.9431 41.7566C38.0803 41.8237 38.2309 41.8588 38.3836 41.8594C38.9514 41.8594 39.4117 41.3991 39.4117 40.8312C39.4117 40.2634 38.9514 39.803 38.3836 39.803C37.8158 39.803 37.3554 40.2634 37.3554 40.8312C37.3561 40.9839 37.3912 41.1344 37.4582 41.2716L36.8708 41.8594H36.1048L34.6137 40.6667V37.5616L34.9907 37.2381L35.6418 37.8893V39.1176H36.3273V37.7467C36.3273 37.6558 36.2911 37.5686 36.2269 37.5044L35.5133 36.7905L36.6523 35.8145L37.4558 36.6181C37.5201 36.6824 37.6073 36.7185 37.6981 36.7185H38.104C38.2708 37.1908 38.7536 37.4739 39.2471 37.3892C39.7407 37.3045 40.1014 36.8767 40.1014 36.3758C40.1014 35.8751 39.7407 35.4472 39.2471 35.3625C38.7535 35.2779 38.2708 35.561 38.104 36.0331H37.8401L37.0127 35.2057V34.1756L39.1602 32.9487H41.3035L42.4962 34.4398V40.8312H41.8012C41.7103 40.8312 41.6232 40.8673 41.5589 40.9316L40.883 41.6075C40.8187 41.6718 40.7826 41.7589 40.7826 41.8498V43.0689L40.188 43.6638L40.6727 44.1484L41.3676 43.4531C41.4319 43.3889 41.468 43.3017 41.468 43.2108V41.9917L41.9431 41.5166H42.4962V50.0845L41.8108 49.5705V47.6855H41.1253V49.7418C41.1253 49.795 41.1377 49.8475 41.1615 49.8951C41.1853 49.9428 41.2199 49.9842 41.2624 50.0161L42.2868 50.7841L40.6586 52.1408Z" stroke="#2E2E3B" stroke-linejoin="round" mask="url(#path-19-outside-1_918_151)"/>
<path d="M94.541 48.0026V29.7713H98.7603V48.0026H94.541Z" fill="#2E2E3B"/>
<path d="M103.087 48.0026V29.7713H106.577L117.333 42.8978H115.64V29.7713H119.808V48.0026H116.344L105.561 34.8761H107.254V48.0026H103.087Z" fill="#2E2E3B"/>
<path d="M127.898 48.0026V33.2092H122.064V29.7713H137.951V33.2092H132.117V48.0026H127.898Z" fill="#2E2E3B"/>
<path d="M140.221 48.0026V29.7713H144.44V48.0026H140.221Z" fill="#2E2E3B"/>
<path d="M152.543 48.0026V33.2092H146.709V29.7713H162.597V33.2092H156.763V48.0026H152.543Z" fill="#2E2E3B"/>
<path d="M161.555 48.0026L169.681 29.7713H173.848L182 48.0026H177.573L170.905 31.907H172.572L165.878 48.0026H161.555ZM165.618 44.0959L166.738 40.8924H176.114L177.26 44.0959H165.618Z" fill="#2E2E3B"/>
<path d="M120.301 64.0026C119.649 64.0026 119.021 63.9244 118.417 63.7679C117.822 63.6017 117.35 63.3964 117 63.1519L117.737 61.5093C118.086 61.7341 118.497 61.9199 118.969 62.0666C119.451 62.2035 119.923 62.2719 120.386 62.2719C120.896 62.2719 121.255 62.2084 121.462 62.0813C121.68 61.9542 121.788 61.7781 121.788 61.5533C121.788 61.3675 121.703 61.2306 121.533 61.1426C121.373 61.0448 121.155 60.9715 120.882 60.9226C120.608 60.8737 120.305 60.8248 119.975 60.7759C119.654 60.727 119.328 60.6635 118.997 60.5853C118.667 60.4973 118.365 60.3701 118.091 60.2039C117.817 60.0377 117.595 59.8128 117.425 59.5293C117.265 59.2457 117.184 58.879 117.184 58.4293C117.184 57.9306 117.321 57.4906 117.595 57.1093C117.878 56.7279 118.284 56.4297 118.813 56.2146C119.342 55.9897 119.975 55.8773 120.712 55.8773C121.231 55.8773 121.76 55.9359 122.298 56.0533C122.836 56.1706 123.285 56.3417 123.644 56.5666L122.907 58.1946C122.539 57.9697 122.166 57.8182 121.788 57.7399C121.42 57.6519 121.061 57.6079 120.712 57.6079C120.22 57.6079 119.862 57.6764 119.635 57.8133C119.408 57.9502 119.295 58.1261 119.295 58.3413C119.295 58.5368 119.375 58.6835 119.536 58.7813C119.706 58.879 119.928 58.9573 120.202 59.0159C120.475 59.0746 120.773 59.1284 121.094 59.1773C121.425 59.2164 121.755 59.2799 122.086 59.3679C122.416 59.4559 122.714 59.583 122.978 59.7493C123.252 59.9057 123.474 60.1257 123.644 60.4093C123.814 60.683 123.899 61.0448 123.899 61.4946C123.899 61.9835 123.757 62.4186 123.474 62.7999C123.191 63.1715 122.78 63.4648 122.241 63.6799C121.713 63.895 121.066 64.0026 120.301 64.0026Z" fill="#00715D"/>
<path d="M128.379 64.0026C127.482 64.0026 126.783 63.7679 126.282 63.2986C125.782 62.8195 125.531 62.1106 125.531 61.1719V54.2493H127.741V61.1426C127.741 61.475 127.826 61.7341 127.996 61.9199C128.166 62.0959 128.398 62.1839 128.69 62.1839C129.04 62.1839 129.337 62.0862 129.583 61.8906L130.178 63.5039C129.951 63.6701 129.677 63.7973 129.356 63.8853C129.044 63.9635 128.719 64.0026 128.379 64.0026ZM124.356 57.9306V56.1706H129.639V57.9306H124.356Z" fill="#00715D"/>
<path d="M134.634 64.0026C134.001 64.0026 133.434 63.8755 132.934 63.6213C132.443 63.367 132.06 62.9808 131.787 62.4626C131.513 61.9346 131.376 61.2648 131.376 60.4533V55.9946H133.586V60.1159C133.586 60.771 133.718 61.255 133.982 61.5679C134.256 61.871 134.639 62.0226 135.13 62.0226C135.47 62.0226 135.772 61.9493 136.036 61.8026C136.301 61.6461 136.508 61.4115 136.66 61.0986C136.811 60.7759 136.886 60.375 136.886 59.8959V55.9946H139.096V63.8853H136.999V61.7146L137.382 62.3453C137.127 62.8928 136.749 63.3084 136.249 63.5919C135.758 63.8657 135.219 64.0026 134.634 64.0026Z" fill="#00715D"/>
<path d="M144.416 64.0026C143.698 64.0026 143.051 63.8364 142.475 63.5039C141.899 63.1617 141.441 62.6875 141.101 62.0813C140.77 61.475 140.605 60.7613 140.605 59.9399C140.605 59.1088 140.77 58.3902 141.101 57.7839C141.441 57.1777 141.899 56.7084 142.475 56.3759C143.051 56.0435 143.698 55.8773 144.416 55.8773C145.058 55.8773 145.62 56.0239 146.101 56.3173C146.583 56.6106 146.956 57.0555 147.22 57.6519C147.485 58.2484 147.617 59.011 147.617 59.9399C147.617 60.859 147.489 61.6217 147.235 62.2279C146.98 62.8244 146.611 63.2693 146.13 63.5626C145.657 63.8559 145.086 64.0026 144.416 64.0026ZM144.798 62.1253C145.157 62.1253 145.483 62.0373 145.775 61.8613C146.068 61.6853 146.3 61.4359 146.47 61.1133C146.649 60.7808 146.739 60.3897 146.739 59.9399C146.739 59.4804 146.649 59.0893 146.47 58.7666C146.3 58.4439 146.068 58.1946 145.775 58.0186C145.483 57.8426 145.157 57.7546 144.798 57.7546C144.43 57.7546 144.099 57.8426 143.806 58.0186C143.514 58.1946 143.278 58.4439 143.098 58.7666C142.928 59.0893 142.843 59.4804 142.843 59.9399C142.843 60.3897 142.928 60.7808 143.098 61.1133C143.278 61.4359 143.514 61.6853 143.806 61.8613C144.099 62.0373 144.43 62.1253 144.798 62.1253ZM146.795 63.8853V62.2719L146.838 59.9253L146.696 57.5933V53.0026H148.906V63.8853H146.795Z" fill="#00715D"/>
<path d="M154.734 64.0026C153.865 64.0026 153.1 63.8266 152.439 63.4746C151.787 63.1226 151.282 62.6435 150.923 62.0373C150.564 61.4213 150.385 60.7221 150.385 59.9399C150.385 59.1479 150.559 58.4488 150.909 57.8426C151.268 57.2266 151.754 56.7475 152.368 56.4053C152.982 56.0533 153.676 55.8773 154.45 55.8773C155.196 55.8773 155.867 56.0435 156.462 56.3759C157.066 56.6986 157.543 57.1679 157.892 57.7839C158.242 58.3902 158.417 59.1186 158.417 59.9693C158.417 60.0573 158.412 60.1599 158.402 60.2773C158.393 60.3848 158.384 60.4875 158.374 60.5853H152.184V59.2506H157.213L156.363 59.6466C156.363 59.2359 156.282 58.879 156.122 58.5759C155.961 58.2728 155.739 58.0382 155.456 57.8719C155.173 57.6959 154.842 57.6079 154.464 57.6079C154.087 57.6079 153.751 57.6959 153.459 57.8719C153.175 58.0382 152.953 58.2777 152.793 58.5906C152.632 58.8937 152.552 59.2555 152.552 59.6759V60.0279C152.552 60.4581 152.642 60.8395 152.821 61.1719C153.01 61.4946 153.27 61.7439 153.6 61.9199C153.94 62.0862 154.337 62.1693 154.79 62.1693C155.196 62.1693 155.55 62.1057 155.853 61.9786C156.164 61.8515 156.448 61.6608 156.703 61.4066L157.878 62.7266C157.529 63.1373 157.09 63.455 156.561 63.6799C156.032 63.895 155.423 64.0026 154.734 64.0026Z" fill="#00715D"/>
<path d="M164.52 55.8773C165.124 55.8773 165.663 56.0044 166.135 56.2586C166.617 56.503 166.994 56.8844 167.268 57.4026C167.542 57.911 167.679 58.5661 167.679 59.3679V63.8853H165.469V59.7199C165.469 59.0844 165.332 58.615 165.058 58.3119C164.794 58.0088 164.416 57.8573 163.925 57.8573C163.576 57.8573 163.259 57.9355 162.976 58.0919C162.702 58.2386 162.485 58.4684 162.324 58.7813C162.173 59.0942 162.098 59.495 162.098 59.9839V63.8853H159.888V55.9946H161.999V58.1799L161.602 57.5199C161.876 56.9919 162.268 56.5861 162.778 56.3026C163.288 56.019 163.868 55.8773 164.52 55.8773Z" fill="#00715D"/>
<path d="M172.799 64.0026C171.901 64.0026 171.203 63.7679 170.702 63.2986C170.201 62.8195 169.951 62.1106 169.951 61.1719V54.2493H172.161V61.1426C172.161 61.475 172.246 61.7341 172.416 61.9199C172.586 62.0959 172.817 62.1839 173.11 62.1839C173.46 62.1839 173.757 62.0862 174.003 61.8906L174.598 63.5039C174.371 63.6701 174.097 63.7973 173.776 63.8853C173.464 63.9635 173.139 64.0026 172.799 64.0026ZM168.775 57.9306V56.1706H174.059V57.9306H168.775Z" fill="#00715D"/>
<path d="M178.402 64.0026C177.75 64.0026 177.122 63.9244 176.518 63.7679C175.923 63.6017 175.451 63.3964 175.101 63.1519L175.838 61.5093C176.187 61.7341 176.598 61.9199 177.07 62.0666C177.552 62.2035 178.024 62.2719 178.487 62.2719C178.997 62.2719 179.356 62.2084 179.564 62.0813C179.781 61.9542 179.889 61.7781 179.889 61.5533C179.889 61.3675 179.804 61.2306 179.634 61.1426C179.474 61.0448 179.257 60.9715 178.983 60.9226C178.709 60.8737 178.407 60.8248 178.076 60.7759C177.755 60.727 177.429 60.6635 177.099 60.5853C176.768 60.4973 176.466 60.3701 176.192 60.2039C175.918 60.0377 175.696 59.8128 175.526 59.5293C175.366 59.2457 175.286 58.879 175.286 58.4293C175.286 57.9306 175.423 57.4906 175.696 57.1093C175.98 56.7279 176.386 56.4297 176.915 56.2146C177.444 55.9897 178.076 55.8773 178.813 55.8773C179.332 55.8773 179.861 55.9359 180.399 56.0533C180.938 56.1706 181.386 56.3417 181.745 56.5666L181.009 58.1946C180.64 57.9697 180.267 57.8182 179.889 57.7399C179.521 57.6519 179.162 57.6079 178.813 57.6079C178.322 57.6079 177.963 57.6764 177.736 57.8133C177.51 57.9502 177.396 58.1261 177.396 58.3413C177.396 58.5368 177.477 58.6835 177.637 58.7813C177.807 58.879 178.029 58.9573 178.303 59.0159C178.577 59.0746 178.874 59.1284 179.195 59.1773C179.526 59.2164 179.856 59.2799 180.187 59.3679C180.517 59.4559 180.815 59.583 181.079 59.7493C181.353 59.9057 181.575 60.1257 181.745 60.4093C181.915 60.683 182 61.0448 182 61.4946C182 61.9835 181.858 62.4186 181.575 62.7999C181.292 63.1715 180.881 63.4648 180.343 63.6799C179.814 63.895 179.167 64.0026 178.402 64.0026Z" fill="#00715D"/>
</svg>
