<svg width="20" height="20" viewBox="0 0 20 20" fill="none" xmlns="http://www.w3.org/2000/svg">
<path d="M19.7422 18.5611L14.7883 13.6022C15.9604 12.1644 16.6669 10.3344 16.6669 8.33699C16.6669 3.74164 12.93 0 8.33142 0C3.7328 0 0 3.74164 0 8.33699C0 12.9323 3.73689 16.6699 8.3355 16.6699C10.3285 16.6699 12.1622 15.9632 13.5998 14.7909L18.5537 19.7457C18.8927 20.0848 19.4073 20.0848 19.7463 19.7457C20.0853 19.4067 20.0853 18.9002 19.7422 18.5611ZM1.6622 8.33699C1.6622 4.65662 4.65171 1.66658 8.33142 1.66658C12.0111 1.66658 15.0047 4.66071 15.0047 8.34108C15.0047 12.0214 12.0111 15.0156 8.33142 15.0156C4.65171 15.0156 1.6622 12.0174 1.6622 8.33699Z" fill="#00715D"/>
</svg>
