<svg width="719" height="375" viewBox="0 0 719 375" fill="none" xmlns="http://www.w3.org/2000/svg">
<g clip-path="url(#clip0_829_321)">
<path d="M117.223 255.512L58.771 311.177L115.716 368.156L174.168 312.49L117.223 255.512Z" fill="#2E2E3B"/>
<path d="M117.222 255.512L58.77 311.177L70.2383 322.652L128.69 266.987L117.222 255.512Z" fill="#00715D"/>
<path d="M293.219 22.6777L334.393 28.4103L307.069 10.231L305.681 16.0592L295.668 17.8286L293.219 22.6777Z" fill="#2E2E3B"/>
<path d="M334.393 28.4101L300.131 11.1657L266.549 9.51904L334.393 28.4101Z" fill="#8BBDAE"/>
<path d="M307.069 10.2308L334.393 28.4102L313.242 0L307.069 10.2308Z" fill="#8BBDAE"/>
<path d="M523.456 101.959L513.101 109.213L502.689 102.038C504.997 98.8697 508.806 96.7739 513.101 96.7739C517.367 96.7739 521.151 98.8181 523.456 101.959Z" fill="#F99746"/>
<path d="M513.101 79.0977C502.69 79.0977 493.489 84.1529 487.907 91.8782L494.482 96.3813C498.612 90.6732 505.428 86.953 513.101 86.953C520.722 86.953 527.482 90.6193 531.613 96.2488L538.16 91.6647C532.553 84.0474 523.404 79.0977 513.101 79.0977Z" fill="#F99746"/>
<path d="M513.101 45.4976C491.075 45.4976 471.595 56.1823 459.791 72.5236L466.366 77.0268C476.721 62.7272 493.812 53.3529 513.103 53.3529C532.234 53.3529 549.217 62.5701 559.6 76.6857L566.119 72.1016C554.285 56.0007 534.941 45.4976 513.101 45.4976Z" fill="#F99746"/>
<path d="M513.101 63.8828C497.433 63.8828 483.535 71.451 475.082 83.0537L481.654 87.5568C488.656 77.9984 500.14 71.7381 513.098 71.7381C525.951 71.7381 537.352 77.8928 544.382 87.3212L550.901 82.7641C542.426 71.321 528.636 63.8828 513.101 63.8828Z" fill="#F99746"/>
<path d="M298.283 145.977L288.789 145.764C291.839 149.624 292.525 153.177 290.625 156.186C288.726 159.256 284.181 161.776 277.395 163.69C282.531 150.35 285.116 136.281 285.116 121.849C285.116 90.6343 272.674 60.0818 249.191 37.2251C226.461 15.0408 195.736 2.16211 162.494 2.16211C143.826 2.16211 125.79 6.20142 109.385 13.9218C109.38 13.9242 109.375 13.9267 109.37 13.9291C104.095 12.3585 98.9589 11.0702 94.0036 10.091C68.9854 5.13638 51.2305 8.55973 44.0174 19.7353C37.1538 30.3637 40.8898 46.3614 54.5089 65.0217C54.5064 65.0242 54.5064 65.0267 54.5039 65.0316C51.4618 70.5187 48.5328 77.0293 46.3782 83.2625C20.7893 84.7496 7.09221 89.1447 2.1117 97.1056C-3.67837 106.374 4.22861 118.811 29.5385 130.905C33.0256 132.576 36.7616 134.218 40.6837 135.857C43.7157 161.86 55.8515 187.065 75.766 206.503C87.0344 217.473 100.141 226.101 114.74 232.148C159.467 250.563 212.784 241.942 249.191 206.503C260.148 195.809 268.834 183.35 274.966 169.555C287.449 167.033 295.668 163.084 298.936 157.857C301.209 154.24 300.93 150.23 298.283 145.977ZM268.99 165.575C260.679 167.033 250.313 167.884 238.202 168.007C219.411 168.23 197.83 166.782 175.087 163.857C177 159.791 178.876 155.612 180.706 151.339C187.763 153.644 194.612 155.469 201.144 156.763C208.626 158.245 215.457 158.976 221.551 158.976C235.839 158.976 246.074 154.949 251.13 147.116C251.962 145.825 252.641 144.458 253.164 143.013H245.88C245.76 143.229 245.631 143.442 245.498 143.651C241.742 149.469 233.352 152.476 221.569 152.473C215.934 152.473 209.518 151.786 202.466 150.39C196.322 149.172 189.875 147.464 183.23 145.31C184.985 141.028 186.69 136.662 188.337 132.232C192.777 120.284 196.578 108.441 199.65 97.0663C224.565 100.652 250.597 100.76 275.603 98.9191C277.184 106.406 277.983 114.07 277.983 121.852C277.986 137.013 274.966 151.72 268.99 165.575ZM117.252 224.911C113.709 223.657 111.912 218.695 111.027 214.751C109.629 208.52 109.375 199.769 110.295 189.445C110.76 184.223 111.507 178.672 112.515 172.863C127.034 176.64 141.413 181.497 155.414 187.352C152.261 192.66 149.071 197.58 145.883 202.042C139.809 210.542 133.868 217.1 128.701 221.006C125.433 223.483 120.794 226.165 117.252 224.911ZM158.62 181.799C143.965 175.634 128.897 170.54 113.682 166.608C114.217 163.914 114.806 161.17 115.444 158.385C119.675 159.325 123.967 160.233 128.312 161.109C141.028 163.646 153.712 165.803 166.129 167.546C163.673 172.513 161.161 177.273 158.62 181.799ZM131.115 156.611C126.202 155.624 121.36 154.593 116.601 153.523C118.841 144.424 121.594 134.939 124.804 125.275C141.503 135.295 158.489 143.447 174.567 149.231C172.55 153.933 170.476 158.517 168.362 162.952C156.151 161.241 143.653 159.121 131.115 156.611ZM90.3279 33.7968C99.6101 52.359 117.501 67.6549 136.752 77.7998C132.088 87.7189 127.645 98.3056 123.56 109.3C122.798 111.349 122.059 113.395 121.335 115.437C96.9376 99.9375 76.2839 82.1508 62.7327 64.9359C62.7302 64.9334 62.7302 64.9309 62.7277 64.9285C69.8779 53.0216 79.1953 42.5086 90.3279 33.7968ZM194.647 16.6212C198.19 17.8752 199.987 22.8372 200.872 26.7808C202.27 33.0116 202.524 41.7626 201.604 52.0866C200.596 63.3874 198.278 76.2243 194.828 89.8932C177.863 87.0441 160.907 82.3471 145.297 74.9507C151.95 61.407 158.984 49.3308 166.019 39.4877C172.093 30.987 178.034 24.4299 183.2 20.5231C185.895 18.4838 189.521 16.3022 192.696 16.3022C193.37 16.3022 194.024 16.4003 194.647 16.6212ZM193.212 96.0503C190.217 107.049 186.529 118.505 182.23 130.07C180.573 134.529 178.858 138.917 177.093 143.219C160.95 137.432 143.814 129.157 126.969 118.936C127.839 116.453 128.739 113.96 129.667 111.462C133.659 100.715 137.994 90.3742 142.537 80.6882C158.436 88.2097 175.66 93.0662 193.212 96.0503ZM244.148 42.1184C259.127 56.7394 269.066 74.3028 274.092 92.6662C247.467 94.5657 223.07 93.9693 201.262 90.8895C204.724 77.0881 207.052 64.1039 208.075 52.6363C209.204 39.9711 209.066 24.9722 203.806 16.5304C219.044 22.2433 232.656 30.8692 244.148 42.1184ZM162.494 9.0898C170.496 9.0898 178.366 9.87508 186.059 11.4358C176.985 15.2911 167.721 26.0225 160.689 35.8607C153.491 45.932 146.305 58.256 139.517 72.05C121.197 62.3346 103.894 47.4387 95.6227 29.8925C114.934 16.4838 138.159 9.0898 162.494 9.0898ZM49.6491 23.1979C53.4052 17.3795 61.7949 14.3758 73.5787 14.3758C79.2154 14.3758 85.629 15.0629 92.6811 16.4592C95.3587 16.9893 98.0916 17.6101 100.872 18.3267C100.875 18.3267 100.877 18.3267 100.88 18.3292C84.0576 27.8262 69.2393 41.5687 58.2072 58.7984C58.2047 58.8008 58.2022 58.8033 58.2022 58.8082C47.7911 43.7184 44.661 30.9232 49.6491 23.1979ZM59.2657 71.1666C59.2657 71.1642 59.2682 71.1617 59.2682 71.1617C73.5359 88.568 94.5642 106.362 119.137 121.795C115.653 132.146 112.681 142.318 110.283 152.066C89.9105 147.256 66.2324 140.451 47.5322 132.728C45.981 117.592 47.6705 102.271 52.3266 87.8171C54.1318 82.2146 56.5303 76.4378 59.2657 71.1666ZM35.2028 127.319C13.1312 116.806 3.04445 106.657 7.55984 99.4565C11.2028 93.6233 24.4624 89.6723 44.7616 88.2147C40.6711 101.695 39.2456 115.709 40.0928 129.57C38.4084 128.838 36.7893 128.08 35.2028 127.319ZM109.121 156.947C108.493 159.688 107.912 162.39 107.379 165.047C105.963 164.711 104.545 164.385 103.127 164.068C79.1676 158.746 61.189 157.663 52.8546 157.479C50.7905 151.41 49.272 145.202 48.3116 138.866C64.6309 144.996 83.0067 150.873 109.121 156.947ZM55.2657 163.914C64.1532 164.262 80.6334 165.578 101.684 170.252C103.19 170.586 104.696 170.937 106.2 171.295C105.116 177.462 104.317 183.357 103.824 188.896C102.889 199.391 102.823 211.492 105.823 220.135C96.6937 215.119 88.3216 208.913 80.8094 201.58C69.6089 190.65 60.9929 177.853 55.2657 163.914ZM127.467 229.335C136.012 224.965 144.598 214.923 151.21 205.671C154.62 200.901 158.029 195.62 161.393 189.919C180.792 198.493 199.444 209.028 216.965 221.301C188.083 236.366 155.56 238.072 127.467 229.335ZM244.148 201.583C237.762 207.833 230.733 213.264 223.137 217.838C204.731 204.709 185.068 193.47 164.581 184.373C167.396 179.335 170.172 174.014 172.882 168.461C191.635 170.888 209.664 172.343 226.122 172.719C230.418 172.839 234.589 172.839 238.637 172.81C249.129 172.689 258.466 172.081 266.469 170.986C260.865 182.319 253.362 192.589 244.148 201.583Z" fill="#2E2E3B"/>
<path d="M241.529 164.655L224.571 361.462C224.571 361.462 222.794 373.391 231.885 373.413C246.834 373.448 306.286 373.413 306.286 373.413C306.286 373.413 295.035 370.93 295.171 365.342C295.332 358.755 314.99 162.792 314.99 162.792L241.529 164.655Z" fill="#D86713"/>
<path d="M311.11 369.843C308.171 369.85 251.384 370.024 236.827 369.843C230.484 369.767 229.37 364.336 229.317 360.824C229.292 359.141 229.511 357.894 229.511 357.894L229.951 352.78L231.075 339.742L232.068 328.222L233.343 313.42L234.416 300.926L246.464 161.082L319.93 159.222C319.93 159.222 311.651 241.23 305.793 300.926C305.139 307.577 304.518 313.955 303.942 319.908C303.756 321.81 303.578 323.668 303.402 325.476C302.859 331.126 302.363 336.311 301.931 340.89C301.702 343.305 301.493 345.545 301.302 347.602C300.556 355.651 300.118 360.792 300.111 361.771C300.108 362.341 300.158 362.871 300.254 363.364C301.463 369.639 310.006 369.843 311.11 369.843Z" fill="#F99746"/>
<path d="M63.1182 57.5615L104.423 219.51L110.077 241.689L129.316 317.118H486.728L415.82 57.5615H63.1182Z" fill="#F99746"/>
<path d="M63.1148 57.5615L57.3901 59.4241L121.704 322.752L129.315 317.118L63.1148 57.5615Z" fill="#2E2E3B"/>
<path d="M121.705 322.752H476.918L486.725 317.118H129.315L121.705 322.752Z" fill="#D86713"/>
<path d="M246.445 373.489H323.353V369.921H246.445V373.489Z" fill="#2E2E3B"/>
<path d="M469.413 269.292L411.417 60.9922H62.5449V57.5615H415.819L473.62 268.828L469.413 269.292Z" fill="#2E2E3B"/>
<path d="M303.805 322.75L303.407 325.479L231.078 339.742L232.071 328.222L232.544 322.75H303.805Z" fill="#D86713"/>
<path opacity="0.4" d="M311.11 369.843C308.171 369.85 251.385 370.024 236.828 369.843C230.484 369.767 229.371 364.336 229.318 360.824L301.305 347.604C300.559 355.654 300.121 360.795 300.114 361.774C300.111 362.343 300.161 362.873 300.257 363.367C301.464 369.639 310.007 369.843 311.11 369.843Z" fill="#D86713"/>
<path opacity="0.4" d="M286.321 264.575L129.315 317.118L110.077 241.689L286.321 264.575Z" fill="#D86713"/>
<path d="M63.1157 57.5615H415.82L473.047 266.163H114.505L63.1157 57.5615Z" fill="#2E2E3B"/>
<path d="M317.495 292.534C316.477 287.417 311.401 283.27 306.162 283.27C300.92 283.27 297.498 287.417 298.516 292.534C299.534 297.651 304.61 301.798 309.85 301.798C315.092 301.798 318.514 297.651 317.495 292.534Z" fill="#D86713"/>
<path d="M456.413 257.125H126.175L88.7747 111.702L85.9111 100.551L83.4623 91.0394L81.5063 83.4246L77.7275 68.7349H403.203L403.432 69.5422L407.349 83.4246L409.501 91.0394L412.189 100.551L415.339 111.702L456.413 257.125Z" fill="#E5EEEB"/>
<path d="M456.413 257.62H126.175L88.7747 112.2L85.9111 101.049L83.4623 91.5375L81.5063 83.9202L77.7275 69.2329H403.203L403.432 70.0403L407.349 83.9202L409.501 91.5375L412.189 101.049L415.339 112.2L456.413 257.62Z" fill="#E5EEEB"/>
<path d="M407.349 83.4246H81.5063L77.7275 68.7349H403.08L403.432 69.5422L407.349 83.4246Z" fill="#8BBDAE"/>
<path d="M86.7807 76.0793C86.3885 74.5406 87.3464 73.2915 88.9253 73.2915C90.5042 73.2915 92.1007 74.5406 92.4929 76.0793C92.8851 77.618 91.9272 78.8671 90.3483 78.8671C88.7694 78.8671 87.1729 77.618 86.7807 76.0793Z" fill="#E5EEEB"/>
<path d="M101.554 78.1771C102.476 77.1583 102.138 75.3963 100.798 74.2415C99.4589 73.0868 97.6258 72.9767 96.7038 73.9955C95.7819 75.0144 96.1202 76.7764 97.4596 77.9311C98.799 79.0858 100.632 79.196 101.554 78.1771Z" fill="#E5EEEB"/>
<path d="M106.491 76.0793C106.099 74.5406 107.057 73.2915 108.636 73.2915C110.215 73.2915 111.811 74.5406 112.203 76.0793C112.596 77.618 111.638 78.8671 110.059 78.8671C108.48 78.8671 106.886 77.618 106.491 76.0793Z" fill="#E5EEEB"/>
<path d="M229.046 257.62H196.393C196.078 255.13 195.804 252.496 195.556 249.75C195.118 244.823 194.781 239.524 194.535 234.01C194.474 232.739 194.424 231.456 194.376 230.165C194.314 228.521 194.261 226.857 194.21 225.186C194.13 222.346 194.067 219.475 194.022 216.587C194.019 216.584 194.019 216.579 194.019 216.577C193.962 212.893 193.934 209.185 193.926 205.492C193.926 205.49 193.926 205.49 193.926 205.49C193.924 204.567 193.924 203.647 193.924 202.726V202.724C193.924 201.858 193.926 200.996 193.929 200.135C193.957 192.184 194.08 184.385 194.253 177.134C194.628 161.089 195.239 147.72 195.563 141.293V141.29C195.694 138.652 195.779 137.185 195.779 137.185C195.782 137.185 195.784 137.187 195.787 137.187C195.86 137.197 196.355 137.288 197.134 137.469C197.705 137.604 198.432 137.791 199.256 138.039H199.259C200.003 138.257 200.828 138.529 201.693 138.848C201.695 138.848 201.698 138.848 201.7 138.851C203.171 139.403 204.757 140.11 206.248 140.996C206.271 141.008 206.293 141.018 206.316 141.03C208.755 142.507 210.957 144.466 211.96 147.052C212.823 149.249 214.839 161.055 217.278 176.736C217.346 177.183 217.413 177.634 217.486 178.088C218.776 186.415 220.169 195.757 221.569 205.298C223.053 215.409 224.534 225.733 225.896 235.301C227.063 243.507 228.141 251.152 229.046 257.62Z" fill="#00715D"/>
<path d="M219.903 257.62H181.894C181.165 254.56 180.484 251.608 179.878 248.837C178.209 241.205 177.11 234.95 177.17 231.59C177.198 230.015 177.809 228.783 178.855 227.836C179.571 227.185 180.494 226.67 181.578 226.268C184.783 225.08 189.392 224.884 194.214 225.185C195.853 225.286 197.515 225.441 199.154 225.635C208.187 226.704 216.574 228.886 216.574 228.886C216.574 228.886 217.135 231.1 217.799 234.97C218.297 237.873 218.852 241.711 219.264 246.243C219.503 248.877 219.697 251.745 219.805 254.803C219.833 255.721 219.865 256.663 219.903 257.62Z" fill="#004941"/>
<path d="M202.349 231.637L201.969 234.317L200.129 247.331L199.815 249.552L198.673 257.62H159.065C158.759 252.288 158.474 247.093 158.419 242.563C158.414 242.06 158.412 241.569 158.412 241.085C158.412 234.263 159.025 229.205 161.029 227.929C163.299 226.481 170.831 226.879 178.852 227.839C179.651 227.932 180.456 228.035 181.263 228.14C185.936 228.754 190.615 229.512 194.376 230.165C196.327 230.504 198.032 230.815 199.359 231.063C201.23 231.412 202.349 231.637 202.349 231.637Z" fill="#2E2E3B"/>
<path d="M158.412 143.894C158.412 143.894 180.172 130.158 195.782 137.184C198.268 138.303 201.107 141.427 203.138 143.611C208.78 149.68 219.804 246.071 219.804 246.071C219.804 246.071 188.511 256.418 158.414 242.56V143.894H158.412Z" fill="#F8FCFB"/>
<path d="M197.019 136.833C197.019 136.833 219.048 145.646 222.032 152.417C225.016 159.187 234.713 200.768 234.713 205.644C234.713 210.52 217.828 206.734 215.11 198.871C212.853 192.341 205.24 172.279 201.225 159.592L197.019 136.833Z" fill="#00715D"/>
<path d="M192.443 143.55C187.634 144.471 180.569 143.489 175.397 140.161C177.733 134.718 178.691 130.419 179.03 127.636C179.051 127.489 179.066 127.344 179.081 127.207C179.234 125.764 179.211 124.787 179.141 124.338H191.573C191.573 124.338 194.973 125.854 194.973 126.902C194.973 127.462 194.978 127.999 194.988 128.512C195.013 129.908 195.071 131.126 195.144 132.174C195.38 135.58 195.78 137.182 195.78 137.182C195.78 137.182 197.301 142.62 192.443 143.55Z" fill="#FFB27D"/>
<path d="M195.143 132.173C185.723 133.95 180.254 128.927 179.03 127.636C178.857 127.452 178.766 127.341 178.766 127.341C178.867 127.292 178.97 127.248 179.08 127.206C182.588 125.82 190.545 126.922 194.987 128.512C195.012 129.908 195.068 131.128 195.143 132.173Z" fill="#2E2E3B"/>
<path d="M175.953 122.342C177.635 131.184 189.326 130.895 194.376 130.338C195.797 130.183 196.692 130.006 196.692 130.006C198.296 129.589 199.189 127.123 199.606 123.896C200.431 117.508 199.39 108.129 198.283 105.731C196.619 102.121 193.484 98.2194 181.713 101.034C169.939 103.856 173.793 111.015 175.953 122.342Z" fill="#FFB27D"/>
<path d="M198.721 100.801C197.112 98.627 193.7 95.9693 190.603 94.335C183.945 90.8208 175.428 94.4454 175.392 94.4601C165.778 98.5853 163.267 105.766 168.363 116.951C173.753 128.78 178.887 127.447 178.887 127.447C178.887 127.447 177.798 126.784 177.896 123.098C177.901 122.89 177.912 122.713 177.922 122.564C177.972 121.808 177.698 121.049 177.12 120.546C175.925 119.506 175.342 116.36 176.343 115.484C177.549 114.426 179.244 115.709 179.787 116.698C180.26 117.395 181.107 117.641 181.896 117.152C184.888 115.307 182.945 111.611 185.803 109.354C188.662 107.093 194.465 108.99 198.756 107.192C204.37 105.15 199.935 102.438 198.721 100.801Z" fill="#004941"/>
<path d="M200.267 257.62H152.886C153.225 248.03 153.66 236.58 154.118 224.987C154.233 221.981 154.357 218.962 154.477 215.968C154.533 214.7 154.58 213.438 154.631 212.177C155.676 186.432 156.717 163.183 156.936 161.929C157.434 159.097 157.904 156.682 158.412 154.589C159.9 148.49 161.751 145.146 165.783 142.269C166.175 141.977 169.404 140.392 172.245 139.008C174.568 137.884 176.632 136.9 176.695 136.873V136.871H176.697C177.167 137.094 177.685 137.732 178.231 138.679C178.776 139.626 179.352 140.888 179.94 142.36C182.105 147.791 184.446 156.1 186.07 162.306C186.072 162.314 186.075 162.321 186.075 162.326C186.077 162.331 186.077 162.333 186.077 162.338C186.077 162.341 186.077 162.341 186.077 162.341C187.123 166.348 187.875 169.467 188.089 170.365C188.453 171.877 188.931 174.8 189.497 178.761V178.77C190.261 184.172 191.176 191.502 192.144 199.821V199.823C192.245 200.68 192.343 201.544 192.443 202.415C192.556 203.411 192.675 204.42 192.79 205.438V205.441C192.828 205.767 192.863 206.096 192.898 206.425V206.427C193.27 209.721 193.647 213.117 194.02 216.575C194.02 216.577 194.02 216.582 194.022 216.584C194.341 219.434 198.769 221.497 199.076 224.4C199.098 224.611 199.121 225.039 199.148 225.632C199.206 226.859 199.274 228.808 199.357 231.061C199.392 232.062 199.427 233.127 199.468 234.212C199.641 239.039 199.855 244.327 200.096 246.872C200.109 246.992 200.119 247.144 200.126 247.331C200.154 247.839 200.177 248.587 200.197 249.525C200.24 251.52 200.26 254.371 200.267 257.62Z" fill="#00715D"/>
<path d="M167.946 172.309C167.931 172.368 167.191 198.344 187.209 201.497C207.227 204.653 193.927 205.487 193.927 205.487C193.927 205.487 156.262 203.924 155.641 202.955C155.018 201.983 167.946 172.309 167.946 172.309Z" fill="#004941"/>
<path d="M184.858 212.648C184.858 212.648 184.484 212.908 183.762 213.362C183.75 213.367 183.737 213.377 183.725 213.384C180.67 215.286 171.606 220.474 158.41 223.951C157.024 224.317 155.591 224.665 154.118 224.984C154.234 221.981 154.357 218.962 154.475 215.968C152.733 215.836 151.063 215.62 149.515 215.298C149.567 214.903 149.623 214.508 149.673 214.111C151.352 213.438 153.019 212.79 154.628 212.177C155.938 211.676 157.208 211.2 158.407 210.759C163.828 208.749 167.845 207.387 167.845 207.387L183.89 212.349L184.858 212.648Z" fill="#004941"/>
<path d="M189.104 212.213C189.104 212.213 187.043 212.716 183.762 213.362C183.749 213.362 183.739 213.364 183.727 213.369C177.675 214.557 167.498 216.221 158.409 216.13C157.069 216.115 155.752 216.064 154.475 215.968C152.732 215.836 151.063 215.62 149.514 215.298C146.193 214.613 143.41 213.455 141.59 211.644C128.068 198.203 148.969 149.96 153.361 145.265C158.49 139.786 167.852 137.862 173.024 137.201C173.24 137.174 173.446 137.147 173.647 137.123C175.465 136.912 176.632 136.868 176.697 136.865C176.7 136.865 176.7 136.865 176.7 136.865C176.7 136.865 176.295 138.136 175.616 140.296C175.352 141.13 175.045 142.1 174.711 143.179C171.536 153.329 165.409 173.278 162.708 184.53C161.718 188.647 161.19 191.597 161.431 192.478C162.485 196.321 173.409 198.297 180.33 199.17C183.216 199.533 185.409 199.708 185.899 199.742C185.934 199.742 185.967 199.745 186.002 199.749L186.402 201.352L187.36 205.195L188.302 208.969L189.104 212.213Z" fill="#00715D"/>
<path d="M226.814 235.341L180.38 233.429L189.8 176.947L236.234 178.856L226.814 235.341Z" fill="#F99746"/>
<path d="M185.997 199.754C185.997 199.754 195.036 199.138 195.488 201.195C196.544 205.988 187.717 209.924 184.859 209.656C182 209.387 183.918 199.433 185.997 199.754Z" fill="#FFB27D"/>
<path d="M233.695 190.326C233.695 190.326 225.047 187.688 224.119 189.585C221.954 194.01 229.61 199.833 232.456 200.216C235.302 200.601 235.795 190.486 233.695 190.326Z" fill="#FFB27D"/>
<path d="M177.637 134.034C177.637 134.034 173.836 135.803 171.928 138.473C171.928 138.473 186.143 162.562 186.077 162.336C186.014 162.11 181.273 137.118 177.637 134.034Z" fill="#004941"/>
<path d="M195.339 134.372C196.591 134.833 198.992 137.233 199.533 138.561L201.222 159.59C201.222 159.59 197.615 144.156 195.779 137.179C195.314 135.41 195.4 134.87 195.339 134.372Z" fill="#004941"/>
<path d="M205.192 177.58C205.192 177.58 205.559 176.012 207.674 176.196C209.788 176.378 221.662 176.947 221.662 176.947C221.662 176.947 223.953 176.91 223.739 178.343L205.192 177.58Z" fill="#2E2E3B"/>
<path d="M191.573 124.338C191.573 124.338 193.114 125.709 195.601 125.285C197.077 125.032 197.901 123.162 197.901 123.162C197.901 123.162 195.068 122.664 191.573 124.338Z" fill="#F8FCFB"/>
<path d="M411.592 141.916L377.294 142.039L366.172 100.477L400.47 100.352L411.592 141.916Z" fill="#F8FCFB"/>
<path d="M391.965 105.815L377.584 105.866L377.418 105.25L391.799 105.199L391.965 105.815Z" fill="#8BBDAE"/>
<path d="M394.26 107.523L376.203 107.587L376.04 106.973L394.097 106.907L394.26 107.523Z" fill="#8BBDAE"/>
<path d="M399.226 115.982L375.771 116.065L375.608 115.452L399.06 115.366L399.226 115.982Z" fill="#8BBDAE"/>
<path d="M399.769 118.009L376.315 118.092L376.151 117.476L399.603 117.393L399.769 118.009Z" fill="#8BBDAE"/>
<path d="M400.309 120.033L376.857 120.119L376.691 119.503L400.146 119.42L400.309 120.033Z" fill="#8BBDAE"/>
<path d="M400.853 122.06L377.401 122.146L377.235 121.53L400.687 121.447L400.853 122.06Z" fill="#8BBDAE"/>
<path d="M401.396 124.087L377.941 124.171L377.778 123.557L401.23 123.471L401.396 124.087Z" fill="#8BBDAE"/>
<path d="M402.713 129.017L379.261 129.103L379.098 128.487L402.55 128.404L402.713 129.017Z" fill="#8BBDAE"/>
<path d="M403.256 131.045L379.804 131.131L379.638 130.515L403.093 130.431L403.256 131.045Z" fill="#8BBDAE"/>
<path d="M403.799 133.071L380.347 133.155L380.181 132.541L403.633 132.456L403.799 133.071Z" fill="#8BBDAE"/>
<path d="M404.342 135.098L380.888 135.182L380.724 134.568L404.176 134.482L404.342 135.098Z" fill="#8BBDAE"/>
<path d="M404.882 137.125L381.431 137.209L381.267 136.593L404.719 136.509L404.882 137.125Z" fill="#8BBDAE"/>
<path d="M425.413 193.561L391.115 193.686L379.992 152.122L414.29 152L425.413 193.561Z" fill="#F8FCFB"/>
<path d="M405.785 157.46L391.404 157.511L391.238 156.898L405.621 156.846L405.785 157.46Z" fill="#8BBDAE"/>
<path d="M408.08 159.168L390.026 159.234L389.86 158.618L407.917 158.554L408.08 159.168Z" fill="#8BBDAE"/>
<path d="M413.046 167.627L389.594 167.713L389.428 167.097L412.882 167.013L413.046 167.627Z" fill="#8BBDAE"/>
<path d="M413.589 169.654L390.134 169.737L389.971 169.123L413.423 169.038L413.589 169.654Z" fill="#8BBDAE"/>
<path d="M414.129 171.681L390.677 171.764L390.514 171.151L413.966 171.065L414.129 171.681Z" fill="#8BBDAE"/>
<path d="M414.672 173.708L391.22 173.791L391.054 173.175L414.509 173.092L414.672 173.708Z" fill="#8BBDAE"/>
<path d="M415.215 175.733L391.761 175.819L391.598 175.203L415.05 175.119L415.215 175.733Z" fill="#8BBDAE"/>
<path d="M416.535 180.665L393.081 180.748L392.917 180.135L416.369 180.049L416.535 180.665Z" fill="#8BBDAE"/>
<path d="M417.075 182.692L393.623 182.775L393.46 182.162L416.912 182.076L417.075 182.692Z" fill="#8BBDAE"/>
<path d="M417.618 184.719L394.166 184.802L394 184.186L417.455 184.103L417.618 184.719Z" fill="#8BBDAE"/>
<path d="M418.162 186.743L394.707 186.829L394.544 186.213L417.996 186.13L418.162 186.743Z" fill="#8BBDAE"/>
<path d="M418.702 188.77L395.25 188.856L395.087 188.24L418.539 188.157L418.702 188.77Z" fill="#8BBDAE"/>
<path d="M439.328 245.554L405.028 245.679L393.905 204.115L428.206 203.993L439.328 245.554Z" fill="#F8FCFB"/>
<path d="M419.699 209.453L405.318 209.504L405.152 208.891L419.535 208.839L419.699 209.453Z" fill="#8BBDAE"/>
<path d="M421.994 211.161L403.94 211.227L403.774 210.611L421.831 210.547L421.994 211.161Z" fill="#8BBDAE"/>
<path d="M426.96 219.62L403.508 219.706L403.342 219.09L426.796 219.006L426.96 219.62Z" fill="#8BBDAE"/>
<path d="M427.503 221.647L404.049 221.73L403.885 221.117L427.337 221.031L427.503 221.647Z" fill="#8BBDAE"/>
<path d="M428.046 223.674L404.592 223.758L404.428 223.144L427.88 223.058L428.046 223.674Z" fill="#8BBDAE"/>
<path d="M428.587 225.701L405.135 225.784L404.969 225.168L428.423 225.085L428.587 225.701Z" fill="#8BBDAE"/>
<path d="M429.13 227.726L405.678 227.812L405.512 227.196L428.964 227.112L429.13 227.726Z" fill="#8BBDAE"/>
<path d="M430.449 232.658L406.997 232.741L406.832 232.128L430.284 232.042L430.449 232.658Z" fill="#8BBDAE"/>
<path d="M430.992 234.685L407.538 234.768L407.375 234.155L430.826 234.069L430.992 234.685Z" fill="#8BBDAE"/>
<path d="M431.533 236.712L408.081 236.796L407.915 236.18L431.369 236.096L431.533 236.712Z" fill="#8BBDAE"/>
<path d="M432.076 238.737L408.624 238.822L408.458 238.206L431.91 238.123L432.076 238.737Z" fill="#8BBDAE"/>
<path d="M432.619 240.763L409.164 240.849L409.001 240.233L432.453 240.15L432.619 240.763Z" fill="#8BBDAE"/>
<path d="M394.23 245.906L274.271 246.338L239.747 117.325L255.372 100.9L355.329 100.54L394.23 245.906Z" fill="#F8FCFB"/>
<path d="M322.286 122.34L280.008 122.492L279.523 120.686L321.801 120.534L322.286 122.34Z" fill="#8BBDAE"/>
<path d="M329.036 127.363L275.955 127.555L275.473 125.746L328.551 125.555L329.036 127.363Z" fill="#8BBDAE"/>
<path d="M343.628 152.23L274.685 152.478L274.2 150.669L343.145 150.421L343.628 152.23Z" fill="#8BBDAE"/>
<path d="M345.224 158.186L276.279 158.433L275.794 156.627L344.739 156.377L345.224 158.186Z" fill="#8BBDAE"/>
<path d="M346.819 164.144L277.873 164.392L277.388 162.583L346.334 162.335L346.819 164.144Z" fill="#8BBDAE"/>
<path d="M348.413 170.1L279.468 170.35L278.985 168.542L347.928 168.294L348.413 170.1Z" fill="#8BBDAE"/>
<path d="M350.007 176.058L281.061 176.306L280.579 174.5L349.521 174.25L350.007 176.058Z" fill="#8BBDAE"/>
<path d="M353.886 190.557L284.941 190.805L284.458 188.996L353.403 188.748L353.886 190.557Z" fill="#8BBDAE"/>
<path d="M355.479 196.513L286.534 196.761L286.051 194.954L354.997 194.704L355.479 196.513Z" fill="#8BBDAE"/>
<path d="M357.074 202.471L288.129 202.719L287.646 200.91L356.591 200.663L357.074 202.471Z" fill="#8BBDAE"/>
<path d="M358.667 208.427L289.722 208.677L289.239 206.868L358.185 206.621L358.667 208.427Z" fill="#8BBDAE"/>
<path d="M360.261 214.385L291.319 214.633L290.833 212.825L359.779 212.577L360.261 214.385Z" fill="#8BBDAE"/>
<path d="M239.746 117.324L259.749 117.25L255.371 100.899L239.746 117.324Z" fill="#8BBDAE"/>
<path d="M528.679 347.087H431.02V313.42H528.991C536.609 313.42 542.783 319.447 542.783 326.883V333.322C542.783 340.925 536.468 347.087 528.679 347.087Z" fill="#E5EEEB"/>
<path d="M626.137 327.273V332.338C626.137 335.045 625.39 337.58 624.088 339.756C621.471 344.139 616.601 347.087 611.024 347.087H428.025C426.813 347.087 425.833 346.129 425.833 344.949V344.191C425.833 343.01 426.813 342.053 428.025 342.053H539.58C540.176 341.344 540.701 340.576 541.146 339.756C542.192 337.835 542.78 335.646 542.78 333.32V326.88C542.78 325.695 542.624 324.546 542.328 323.454C541.827 321.602 540.935 319.903 539.741 318.456H428.025C426.813 318.456 425.833 317.498 425.833 316.316V315.56C425.833 314.377 426.813 313.42 428.025 313.42H611.944C618.426 313.42 623.892 317.66 625.589 323.454C625.948 324.669 626.137 325.95 626.137 327.273Z" fill="#2E2E3B"/>
<path d="M625.592 323.454H542.331C541.831 321.602 540.938 319.903 539.744 318.456H428.028C426.816 318.456 425.836 317.498 425.836 316.316V315.56C425.836 314.377 426.816 313.42 428.028 313.42H611.948C618.429 313.42 623.895 317.66 625.592 323.454Z" fill="#2E2E3B"/>
<path d="M431.02 330.254L444.571 330.819L431.02 331.16V330.254Z" fill="#F4D2B8"/>
<path d="M431.02 335.536L463.256 336.103L431.02 336.444V335.536Z" fill="#F4D2B8"/>
<path d="M454.311 373.205H558.27V347.018H453.466C446.29 347.018 440.473 352.697 440.473 359.7C440.475 367.158 446.668 373.205 454.311 373.205Z" fill="#00715D"/>
<path d="M552.301 373.204H670.617V347.018H551.999C544.703 347.018 538.79 352.789 538.79 359.911V360.017C538.793 367.3 544.842 373.204 552.301 373.204Z" fill="#E5EEEB"/>
<path d="M530.893 373.204H674.727C675.836 373.204 676.733 372.328 676.733 371.246C676.733 370.164 675.836 369.288 674.727 369.288H530.893C529.784 369.288 528.887 370.164 528.887 371.246C528.887 372.326 529.784 373.204 530.893 373.204Z" fill="#00715D"/>
<path d="M530.893 350.931H674.727C675.836 350.931 676.733 350.055 676.733 348.973C676.733 347.891 675.836 347.015 674.727 347.015H530.893C529.784 347.015 528.887 347.891 528.887 348.973C528.887 350.055 529.784 350.931 530.893 350.931Z" fill="#00715D"/>
<path d="M670.619 360.109L654.637 360.549L670.619 360.816V360.109Z" fill="#F4D2B8"/>
<path d="M670.62 354.083L632.596 354.524L670.62 354.789V354.083Z" fill="#F4D2B8"/>
<path d="M632.987 354.436C632.987 354.436 634.617 355.559 635.157 357.41C635.253 357.734 635.313 358.08 635.325 358.445C635.416 360.902 635.325 366.463 635.325 366.463L640.138 363.682L644.935 366.463V358.926C644.935 357.501 644.522 356.114 643.758 355.206C643.388 354.767 642.938 354.436 642.428 354.436H632.987Z" fill="#2E2E3B"/>
<path d="M632.987 354.436C632.987 354.436 634.617 355.559 635.157 357.41L644.799 357.52C644.799 357.52 644.422 354.872 642.431 354.436H632.987Z" fill="#2E2E3B"/>
<path d="M540.203 313.491H646.421V275.017H539.854C531.348 275.017 524.452 281.748 524.452 290.05V298.116C524.452 306.607 531.504 313.491 540.203 313.491Z" fill="#E5EEEB"/>
<path d="M526.951 289.945V298.225C526.976 301.761 528.983 304.829 531.929 306.471C533.38 307.276 535.057 307.737 536.839 307.737H652.188C653.541 307.737 654.637 308.807 654.637 310.127V311.104C654.637 312.424 653.541 313.494 652.188 313.494H452.92C447.203 313.494 442.149 310.721 439.097 306.473C437.174 303.798 436.042 300.539 436.042 297.02V290.488C436.042 288.078 436.608 285.793 437.616 283.761C440.178 278.588 445.606 275.02 451.889 275.02H652.188C653.541 275.02 654.637 276.088 654.637 277.408V278.384C654.637 279.705 653.541 280.775 652.188 280.775H536.485C533.719 280.775 531.218 281.923 529.468 283.761C527.922 285.388 526.966 287.555 526.951 289.945Z" fill="#2E2E3B"/>
<path d="M646.421 294.253L631.633 294.901L646.421 295.289V294.253Z" fill="#F4D2B8"/>
<path d="M646.422 285.399L611.241 286.047L646.422 286.435V285.399Z" fill="#F4D2B8"/>
<path d="M611.602 285.917C611.602 285.917 613.923 287.137 614.692 289.142C614.828 289.493 614.916 289.868 614.933 290.264C615.062 292.929 614.933 298.958 614.933 298.958L621.787 295.942L628.623 298.958V290.786C628.623 289.24 628.037 287.738 626.946 286.754C626.418 286.278 625.777 285.917 625.053 285.917H611.602Z" fill="#F99746"/>
<path d="M611.602 285.917C611.602 285.917 613.923 287.137 614.692 289.142L628.429 289.262C628.429 289.262 627.891 286.391 625.055 285.917H611.602Z" fill="#2E2E3B"/>
<path d="M542.051 260.752C548.13 271.081 555.778 275.066 555.778 275.066H587.592C587.59 275.066 537.412 252.872 542.051 260.752Z" fill="#004941"/>
<path d="M566.483 340.664C567.313 341.592 567.419 342.627 567.009 343.734C567.009 343.739 567.006 343.746 567.001 343.749C566.242 345.796 563.735 348.08 560.824 350.362C560.452 350.655 560.12 350.922 559.833 351.17C559.758 351.234 559.682 351.3 559.612 351.364C559.554 351.413 559.496 351.467 559.441 351.513C556.726 353.958 557.747 354.517 552.869 359.474C547.308 365.123 543.476 365.224 542.388 364.711C541.465 364.272 543.338 361.276 545.412 357.909C545.513 357.747 545.611 357.582 545.714 357.418C545.991 356.971 546.265 356.515 546.539 356.066C548.97 352.012 548.346 350.112 547.768 344.08C547.3 339.18 539.957 316.698 539.957 316.698L550.617 314.907C550.617 314.907 553.827 332.809 557.364 335.565C559.255 337.035 561.372 337.052 563.19 338.141C563.318 338.218 563.444 338.296 563.567 338.375C564.6 339.045 565.651 339.734 566.483 340.664Z" fill="#FFB27D"/>
<path d="M566.484 340.664C567.313 341.592 567.419 342.628 567.009 343.734C567.009 343.739 567.007 343.747 567.002 343.749C566.071 345.793 563.628 348.068 560.814 350.343C560.447 350.64 560.123 350.915 559.834 351.17C559.758 351.234 559.683 351.3 559.612 351.364C559.555 351.413 559.497 351.467 559.441 351.514C556.726 353.958 557.747 354.517 552.87 359.474C547.308 365.124 543.477 365.224 542.388 364.711C541.465 364.272 543.338 361.276 545.413 357.909C546.496 357.521 551.524 355.528 555.328 350.777C558.677 346.606 560.912 341.246 563.193 338.142C563.321 338.218 563.447 338.296 563.57 338.375C564.601 339.045 565.651 339.734 566.484 340.664Z" fill="#004941"/>
<path d="M480.533 334.166C479.874 337.378 475.185 336.841 469.945 335.592C464.706 334.343 465.95 335.827 458.494 335.022C451.037 334.218 448.776 331.503 448.55 330.421C448.346 329.462 452.032 329.123 455.984 328.679C456.482 328.625 456.98 328.563 457.48 328.505C461.943 327.957 465.211 325.148 469.264 322.838C473.103 320.652 478.833 311.744 478.833 311.744L489.061 312.534C489.061 312.534 483.693 320.49 481.619 323.95C480.397 325.984 480.462 328.674 480.616 330.752C480.691 331.881 480.766 333.035 480.533 334.166Z" fill="#FFB27D"/>
<path d="M469.945 335.592C464.706 334.343 465.95 335.827 458.494 335.022C451.037 334.217 448.776 331.503 448.55 330.421C448.346 329.462 452.032 329.123 455.984 328.679L456.022 328.752C456.022 328.752 460.495 331.847 466.702 331.992C471.761 332.112 477.121 330.696 480.615 330.752C480.696 331.881 480.771 333.037 480.538 334.168C479.874 337.378 475.185 336.843 469.945 335.592Z" fill="#004941"/>
<path d="M519.725 270.334L529.286 295.446L541.769 328.235C541.769 328.235 545.156 328.554 548.401 327.643C551.388 326.801 554.815 324.595 554.815 324.595C554.815 324.595 551.348 289.39 544.884 269.181C543.227 263.993 541.369 259.797 539.32 257.436C529.296 245.875 519.725 270.334 519.725 270.334Z" fill="#004941"/>
<path d="M529.448 230.454C535.71 228.481 553.576 231.014 571.522 234.442L575.28 228.393L614.041 225.438C614.041 225.438 626.833 253.125 619.828 270.767C618.8 273.361 616.754 275.022 613.269 275.078C613.269 275.081 612.706 275.076 612.703 275.078C612.703 275.078 589.634 275.066 582.141 275.066C562.866 275.066 541.344 262.133 538.561 261.589C534.006 260.698 532.183 269.594 527.625 278.934C523.069 288.274 484.794 320.296 484.794 320.296C484.794 320.296 478.911 320.353 476.482 319.464C473.87 318.507 472.912 317.265 472.912 317.265C472.912 317.265 515.321 234.904 529.448 230.454Z" fill="#00715D"/>
<path d="M575.504 176.292C589.307 183.71 617.309 199.09 617.455 198.989C617.455 198.989 627.748 202.775 633.586 198.989C643.318 192.68 648.537 175.703 630.74 161.092C621.865 153.806 615.557 152.031 614.599 140.394C614.078 134.083 605.239 113.248 590.551 115.177C589.324 115.339 581.769 115.682 576.804 118.227C564.15 124.713 554.813 173.421 575.504 176.292Z" fill="#00715D"/>
<path d="M587.074 169.978C587.014 170.017 593.865 172.299 598.448 170.319C602.758 168.458 606.024 161.538 605.961 161.533C604 161.445 601.848 159.771 600.188 148.792L599.353 149.084L585.314 154.014C585.314 154.014 586.333 158.412 586.989 162.596C587.544 166.112 587.841 169.479 587.074 169.978Z" fill="#FFB27D"/>
<path d="M585.314 154.014C585.314 154.014 586.333 158.412 586.989 162.596C595.052 161.18 598.217 153.337 599.351 149.082L585.314 154.014Z" fill="#2E2E3B"/>
<path d="M583.225 158.38C583.225 158.38 602.431 155.865 600.643 144.213C598.853 132.561 600.128 124.392 587.788 125.503C575.449 126.618 573.755 131.41 573.385 135.442C573.01 139.472 578.182 158.733 583.225 158.38Z" fill="#FFB27D"/>
<path d="M574.081 129.055C574.081 129.055 586.375 139.396 594.74 140.23C603.102 141.065 606.27 138.444 606.27 138.444C606.27 138.444 601.339 134.449 598.373 128.002C597.498 126.102 595.652 124.797 593.525 124.618C587.554 124.115 576.233 123.887 574.081 129.055Z" fill="#004941"/>
<path d="M581.767 128.129C581.767 128.129 577.654 132.012 576.359 134.89C575.11 137.668 574.735 144.314 575.731 146.954C575.731 146.954 569.322 134.789 572.95 128.88C576.797 122.615 581.767 128.129 581.767 128.129Z" fill="#004941"/>
<path d="M570.9 197.593C571.481 235.542 571.059 227.613 575.312 231.213C576.338 232.079 579.219 232.597 583.011 232.84C594.933 233.613 615.888 231.696 616.685 229.544C619.436 222.104 617.495 219.792 619.788 208.4C620.027 207.188 620.323 205.878 620.67 204.449C622.583 196.626 624.444 193.963 617.658 181.394C611.504 170.007 605.11 160.765 604.534 161.099C588.298 170.508 586.988 162.599 586.988 162.599C586.988 162.599 570.616 179.082 570.9 197.593Z" fill="#2E2E3B"/>
<path d="M529.286 295.446L541.769 328.235C541.769 328.235 545.155 328.554 548.401 327.643C551.388 326.801 554.815 324.595 554.815 324.595C554.815 324.595 551.348 289.39 544.884 269.181L529.286 295.446Z" fill="#00715D"/>
<path d="M586.989 162.599C586.989 162.599 570.283 165.364 568.319 172.385C566.355 179.406 554.811 220.685 554.811 220.685C554.811 220.685 563.303 222.175 567.228 218.344C571.152 214.513 580.88 182.812 580.88 182.812L586.989 162.599Z" fill="#8BBDAE"/>
<path d="M583.012 232.842C594.934 233.615 615.889 231.698 616.686 229.546C619.437 222.106 617.496 219.794 619.789 208.402L614.039 192.599C614.039 192.599 614.989 210.199 609.672 214.827C604.359 219.455 587.902 223.762 585.315 227.63C584.07 229.485 583.251 231.348 583.012 232.842Z" fill="#2E2E3B"/>
<path d="M596.671 225.441C596.671 225.441 584.909 222.884 583.011 223.905C581.113 224.923 576.474 228.634 575.894 229.924C575.313 231.215 580.117 228.945 581.681 228.535C582.694 228.27 585.359 229.174 586.677 229.603C592.228 231.409 595.63 230.479 595.63 230.479L596.671 225.441Z" fill="#FFB27D"/>
<path d="M604.548 161.091C604.548 161.091 620.341 162.041 625.807 169.484C633.503 179.96 648.769 224.611 640.02 230.567C630.167 237.274 595.175 232.322 595.175 232.322C595.175 232.322 594.011 227.009 595.63 224.439C597.249 221.87 623.577 217.718 624.794 216.532C626.008 215.347 609.606 193.403 609.606 189.845C609.606 186.287 604.548 161.091 604.548 161.091Z" fill="#8BBDAE"/>
<path d="M582.44 227.097C582.44 227.097 579.976 230.199 579.169 230.57C578.362 230.94 577.839 230.847 577.839 230.847L579.501 227.929L582.44 227.097Z" fill="#FFB27D"/>
<path d="M583.012 223.902L575.847 227.299C575.847 227.299 576.151 227.785 577.033 227.745C577.916 227.706 580.141 226.911 580.141 226.911L583.012 223.902Z" fill="#FFB27D"/>
<path d="M579.17 235.323H522.491L505.442 193.941H562.033L579.17 235.323Z" fill="#F99746"/>
<path d="M521.827 233.711H596.67V235.323H522.49L521.827 233.711Z" fill="#2E2E3B"/>
<path d="M536.799 214.633C536.371 213.178 537.234 212 538.725 212C540.216 212 541.769 213.18 542.197 214.633C542.624 216.088 541.762 217.266 540.271 217.266C538.78 217.266 537.226 216.086 536.799 214.633Z" fill="#F8FCFB"/>
<path d="M64.1257 251.576L62.9189 252.393C61.6291 253.264 59.8567 252.95 58.9616 251.694L51.9421 241.809C51.0496 240.55 51.3714 238.817 52.6587 237.946L54.3884 236.776C54.6398 236.604 54.9868 236.665 55.1627 236.913C55.3387 237.158 55.2759 237.497 55.022 237.669L53.2922 238.839C52.5078 239.37 52.3117 240.425 52.8548 241.19L59.8743 251.075C60.4173 251.841 61.4984 252.032 62.2828 251.502L63.4896 250.685C64.274 250.155 64.4701 249.1 63.9271 248.334L59.2658 241.772C59.0899 241.527 59.1527 241.188 59.4066 241.016C59.6581 240.844 60.005 240.906 60.181 241.154L64.8422 247.716C65.7373 248.972 65.4155 250.705 64.1257 251.576Z" fill="#8BBDAE"/>
<path d="M71.8218 261.326L69.6571 262.791C67.6483 264.15 64.7998 263.546 63.3089 261.446L52.7546 246.584C52.5786 246.339 52.6414 246 52.8954 245.828C53.1468 245.657 53.4937 245.718 53.6697 245.966L64.2241 260.827C65.3655 262.437 67.5201 262.918 69.0236 261.9L71.1882 260.435C72.6942 259.416 72.9883 257.279 71.8444 255.671L59.8243 238.741C58.6829 237.131 56.5283 236.653 55.0223 237.669C54.7709 237.841 54.424 237.779 54.248 237.531C54.072 237.286 54.1348 236.947 54.3888 236.776C56.3976 235.416 59.2461 236.02 60.737 238.12L72.757 255.051C74.2504 257.151 73.8306 259.966 71.8218 261.326Z" fill="#8BBDAE"/>
<path d="M86.3401 338.951L86.6016 341.045C86.8782 343.28 85.2414 345.32 82.9536 345.59L64.9574 347.722C62.667 347.995 60.5777 346.394 60.3012 344.161L59.9291 341.162C59.8738 340.723 60.1931 340.326 60.6431 340.274C61.0906 340.22 61.5004 340.532 61.5532 340.971L61.9253 343.97C62.0938 345.329 63.3659 346.304 64.7587 346.137L82.755 344.004C84.1478 343.84 85.1459 342.598 84.975 341.239L84.7135 339.145C84.545 337.786 83.2729 336.811 81.88 336.978L69.9328 338.394C69.4828 338.448 69.0755 338.134 69.0227 337.697C68.9674 337.258 69.2892 336.861 69.7367 336.807L81.6839 335.391C83.9718 335.121 86.0611 336.718 86.3401 338.951Z" fill="#8BBDAE"/>
<path d="M104.619 335.869L105.086 339.621C105.519 343.106 102.761 346.309 98.9341 346.763L71.8769 349.968C71.4268 350.022 71.0195 349.707 70.9642 349.271C70.9089 348.831 71.2307 348.434 71.6782 348.38L98.7355 345.175C101.664 344.829 103.784 342.421 103.46 339.813L102.992 336.061C102.668 333.45 100.02 331.609 97.0912 331.957L66.2703 335.609C63.3413 335.955 61.2219 338.362 61.5462 340.971C61.6015 341.41 61.2797 341.808 60.8322 341.859C60.3822 341.913 59.9749 341.602 59.9221 341.163C59.4897 337.678 62.2477 334.475 66.0742 334.021L96.8951 330.37C100.722 329.918 104.186 332.384 104.619 335.869Z" fill="#8BBDAE"/>
<path d="M397.95 90.9474C398.266 89.639 397.436 88.3278 396.095 88.0189C394.755 87.7099 393.412 88.5201 393.095 89.8286C392.779 91.137 393.609 92.4482 394.949 92.7572C396.29 93.0661 397.633 92.2559 397.95 90.9474Z" fill="#F99746"/>
<path d="M732.482 374.907H4.98047C4.52541 374.907 4.15332 374.544 4.15332 374.1V373.825C4.15332 373.381 4.52541 373.018 4.98047 373.018H732.482C732.938 373.018 733.31 373.381 733.31 373.825V374.1C733.31 374.544 732.938 374.907 732.482 374.907Z" fill="#004941"/>
</g>
<defs>
<clipPath id="clip0_829_321">
<rect width="734" height="375" fill="white"/>
</clipPath>
</defs>
</svg>
