<svg width="371" height="138" viewBox="0 0 371 138" fill="none" xmlns="http://www.w3.org/2000/svg">
<rect width="371" height="138" rx="20" fill="#004941"/>
<path d="M29.176 57V23.4H44.824C48.728 23.4 51.768 24.152 53.944 25.656C56.12 27.16 57.208 29.304 57.208 32.088C57.208 34.84 56.184 36.984 54.136 38.52C52.088 40.024 49.368 40.776 45.976 40.776L46.888 38.76C50.664 38.76 53.592 39.512 55.672 41.016C57.752 42.52 58.792 44.696 58.792 47.544C58.792 50.488 57.672 52.808 55.432 54.504C53.224 56.168 49.992 57 45.736 57H29.176ZM36.904 51.24H45.448C47.24 51.24 48.6 50.888 49.528 50.184C50.456 49.48 50.92 48.392 50.92 46.92C50.92 45.512 50.456 44.472 49.528 43.8C48.6 43.096 47.24 42.744 45.448 42.744H36.904V51.24ZM36.904 37.32H44.152C45.848 37.32 47.128 36.984 47.992 36.312C48.856 35.608 49.288 34.584 49.288 33.24C49.288 31.896 48.856 30.888 47.992 30.216C47.128 29.512 45.848 29.16 44.152 29.16H36.904V37.32ZM76.4616 57.384C73.7096 57.384 71.2616 56.808 69.1176 55.656C67.0056 54.504 65.3256 52.936 64.0776 50.952C62.8616 48.936 62.2536 46.648 62.2536 44.088C62.2536 41.496 62.8616 39.208 64.0776 37.224C65.3256 35.208 67.0056 33.64 69.1176 32.52C71.2616 31.368 73.7096 30.792 76.4616 30.792C79.1816 30.792 81.6136 31.368 83.7576 32.52C85.9016 33.64 87.5816 35.192 88.7976 37.176C90.0136 39.16 90.6216 41.464 90.6216 44.088C90.6216 46.648 90.0136 48.936 88.7976 50.952C87.5816 52.936 85.9016 54.504 83.7576 55.656C81.6136 56.808 79.1816 57.384 76.4616 57.384ZM76.4616 51.24C77.7096 51.24 78.8296 50.952 79.8216 50.376C80.8136 49.8 81.5976 48.984 82.1736 47.928C82.7496 46.84 83.0376 45.56 83.0376 44.088C83.0376 42.584 82.7496 41.304 82.1736 40.248C81.5976 39.192 80.8136 38.376 79.8216 37.8C78.8296 37.224 77.7096 36.936 76.4616 36.936C75.2136 36.936 74.0936 37.224 73.1016 37.8C72.1096 38.376 71.3096 39.192 70.7016 40.248C70.1256 41.304 69.8376 42.584 69.8376 44.088C69.8376 45.56 70.1256 46.84 70.7016 47.928C71.3096 48.984 72.1096 49.8 73.1016 50.376C74.0936 50.952 75.2136 51.24 76.4616 51.24ZM92.1329 56.952L92.5169 50.808C92.7089 50.84 92.9009 50.872 93.0929 50.904C93.2849 50.904 93.4609 50.904 93.6209 50.904C94.5169 50.904 95.2209 50.648 95.7329 50.136C96.2449 49.624 96.6289 48.936 96.8849 48.072C97.1409 47.176 97.3169 46.168 97.4129 45.048C97.5409 43.928 97.6369 42.76 97.7009 41.544L98.0849 31.176H120.165V57H112.677V35.496L114.357 37.32H103.029L104.613 35.4L104.277 41.88C104.181 44.184 103.989 46.296 103.701 48.216C103.445 50.136 103.013 51.8 102.405 53.208C101.797 54.584 100.981 55.656 99.9569 56.424C98.9329 57.16 97.6209 57.528 96.0209 57.528C95.4449 57.528 94.8369 57.48 94.1969 57.384C93.5569 57.288 92.8689 57.144 92.1329 56.952ZM139.462 57.384C136.71 57.384 134.262 56.808 132.118 55.656C130.006 54.504 128.326 52.936 127.078 50.952C125.862 48.936 125.254 46.648 125.254 44.088C125.254 41.496 125.862 39.208 127.078 37.224C128.326 35.208 130.006 33.64 132.118 32.52C134.262 31.368 136.71 30.792 139.462 30.792C142.182 30.792 144.614 31.368 146.758 32.52C148.902 33.64 150.582 35.192 151.798 37.176C153.014 39.16 153.622 41.464 153.622 44.088C153.622 46.648 153.014 48.936 151.798 50.952C150.582 52.936 148.902 54.504 146.758 55.656C144.614 56.808 142.182 57.384 139.462 57.384ZM139.462 51.24C140.71 51.24 141.83 50.952 142.822 50.376C143.814 49.8 144.598 48.984 145.174 47.928C145.75 46.84 146.038 45.56 146.038 44.088C146.038 42.584 145.75 41.304 145.174 40.248C144.598 39.192 143.814 38.376 142.822 37.8C141.83 37.224 140.71 36.936 139.462 36.936C138.214 36.936 137.094 37.224 136.102 37.8C135.11 38.376 134.31 39.192 133.702 40.248C133.126 41.304 132.838 42.584 132.838 44.088C132.838 45.56 133.126 46.84 133.702 47.928C134.31 48.984 135.11 49.8 136.102 50.376C137.094 50.952 138.214 51.24 139.462 51.24ZM176.157 53.64V37.32H167.709L167.565 40.632C167.501 42.008 167.421 43.32 167.325 44.568C167.229 45.816 167.037 46.952 166.749 47.976C166.493 48.968 166.109 49.816 165.597 50.52C165.085 51.192 164.397 51.656 163.533 51.912L156.141 50.856C157.069 50.856 157.821 50.584 158.397 50.04C158.973 49.464 159.421 48.68 159.741 47.688C160.061 46.664 160.301 45.512 160.461 44.232C160.621 42.92 160.733 41.544 160.797 40.104L161.133 31.176H183.645V53.64H176.157ZM155.277 62.568V50.856H187.341V62.568H180.381V57H162.237V62.568H155.277ZM192.053 57V31.176H199.493V46.536L212.069 31.176H218.933V57H211.493V41.64L198.965 57H192.053ZM226.131 57V31.176H233.955L243.699 48.84H240.579L250.995 31.176H258.003L258.099 57H251.331V38.856L252.483 39.624L243.603 54.504H240.435L231.507 39.096L232.899 38.76V57H226.131ZM265.272 57V31.176H272.712V46.536L285.288 31.176H292.152V57H284.712V41.64L272.184 57H265.272ZM314.566 57.384C312.39 57.384 310.486 56.904 308.854 55.944C307.222 54.984 305.942 53.528 305.014 51.576C304.118 49.592 303.67 47.096 303.67 44.088C303.67 41.048 304.102 38.552 304.966 36.6C305.83 34.648 307.078 33.192 308.71 32.232C310.342 31.272 312.294 30.792 314.566 30.792C316.998 30.792 319.174 31.352 321.094 32.472C323.046 33.56 324.582 35.096 325.702 37.08C326.854 39.064 327.43 41.4 327.43 44.088C327.43 46.808 326.854 49.16 325.702 51.144C324.582 53.128 323.046 54.664 321.094 55.752C319.174 56.84 316.998 57.384 314.566 57.384ZM299.302 66.312V31.176H306.454V36.456L306.31 44.136L306.79 51.768V66.312H299.302ZM313.27 51.24C314.518 51.24 315.622 50.952 316.582 50.376C317.574 49.8 318.358 48.984 318.934 47.928C319.542 46.84 319.846 45.56 319.846 44.088C319.846 42.584 319.542 41.304 318.934 40.248C318.358 39.192 317.574 38.376 316.582 37.8C315.622 37.224 314.518 36.936 313.27 36.936C312.022 36.936 310.902 37.224 309.91 37.8C308.918 38.376 308.134 39.192 307.558 40.248C306.982 41.304 306.694 42.584 306.694 44.088C306.694 45.56 306.982 46.84 307.558 47.928C308.134 48.984 308.918 49.8 309.91 50.376C310.902 50.952 312.022 51.24 313.27 51.24ZM50.2 103.472C48.536 104.144 46.936 104.656 45.4 105.008C43.864 105.328 42.392 105.488 40.984 105.488C36.472 105.488 33.016 104.416 30.616 102.272C28.216 100.096 27.016 96.976 27.016 92.912V82.4H34.696V92.048C34.696 94.352 35.32 96.096 36.568 97.28C37.816 98.432 39.592 99.008 41.896 99.008C43.368 99.008 44.792 98.848 46.168 98.528C47.544 98.176 48.824 97.68 50.008 97.04L50.2 103.472ZM49.096 116V82.4H56.776V116H49.096ZM68.0571 125.696C66.7131 125.696 65.3851 125.488 64.0731 125.072C62.7611 124.656 61.6891 124.08 60.8571 123.344L63.5931 118.016C64.1691 118.528 64.8251 118.928 65.5611 119.216C66.3291 119.504 67.0811 119.648 67.8171 119.648C68.8731 119.648 69.7051 119.392 70.3131 118.88C70.9531 118.4 71.5291 117.584 72.0411 116.432L73.3851 113.264L73.9611 112.448L83.2251 90.176H90.4251L78.7611 117.584C77.9291 119.664 76.9691 121.296 75.8811 122.48C74.8251 123.664 73.6411 124.496 72.3291 124.976C71.0491 125.456 69.6251 125.696 68.0571 125.696ZM72.4731 117.008L60.9531 90.176H68.6811L77.6091 111.776L72.4731 117.008ZM106.713 116.576C104.601 116.576 102.681 116.272 100.953 115.664C99.2249 115.024 97.7209 114.048 96.4409 112.736C95.1929 111.392 94.2169 109.68 93.5129 107.6C92.8409 105.52 92.5049 103.04 92.5049 100.16C92.5049 98.112 92.6809 96.24 93.0329 94.544C93.3849 92.848 93.9129 91.312 94.6169 89.936C95.3209 88.528 96.2169 87.296 97.3049 86.24C98.4249 85.152 99.7209 84.256 101.193 83.552C102.697 82.816 104.393 82.256 106.281 81.872L118.569 79.424L119.577 85.856L108.729 88.016C108.089 88.144 107.353 88.32 106.521 88.544C105.721 88.736 104.905 89.04 104.073 89.456C103.273 89.872 102.521 90.464 101.817 91.232C101.145 91.968 100.601 92.944 100.185 94.16C99.7689 95.344 99.5609 96.816 99.5609 98.576C99.5609 99.12 99.5769 99.536 99.6089 99.824C99.6729 100.112 99.7209 100.416 99.7529 100.736C99.8169 101.056 99.8489 101.552 99.8489 102.224L97.4489 99.872C98.1529 98.368 99.0489 97.088 100.137 96.032C101.257 94.976 102.537 94.176 103.977 93.632C105.449 93.056 107.081 92.768 108.873 92.768C111.305 92.768 113.433 93.264 115.257 94.256C117.113 95.216 118.553 96.576 119.577 98.336C120.601 100.096 121.113 102.096 121.113 104.336C121.113 106.768 120.505 108.912 119.289 110.768C118.073 112.592 116.377 114.016 114.201 115.04C112.057 116.064 109.561 116.576 106.713 116.576ZM107.097 110.768C108.345 110.768 109.449 110.496 110.409 109.952C111.369 109.376 112.105 108.624 112.617 107.696C113.161 106.736 113.433 105.664 113.433 104.48C113.433 103.328 113.161 102.304 112.617 101.408C112.105 100.512 111.369 99.808 110.409 99.296C109.449 98.784 108.329 98.528 107.049 98.528C105.801 98.528 104.681 98.784 103.689 99.296C102.697 99.776 101.929 100.448 101.385 101.312C100.841 102.176 100.569 103.184 100.569 104.336C100.569 105.52 100.841 106.608 101.385 107.6C101.961 108.56 102.729 109.328 103.689 109.904C104.681 110.48 105.817 110.768 107.097 110.768ZM141.228 116V110.96L140.748 109.856V100.832C140.748 99.232 140.252 97.984 139.26 97.088C138.3 96.192 136.812 95.744 134.796 95.744C133.42 95.744 132.06 95.968 130.716 96.416C129.404 96.832 128.284 97.408 127.356 98.144L124.668 92.912C126.076 91.92 127.772 91.152 129.756 90.608C131.74 90.064 133.756 89.792 135.804 89.792C139.74 89.792 142.796 90.72 144.972 92.576C147.148 94.432 148.236 97.328 148.236 101.264V116H141.228ZM133.356 116.384C131.34 116.384 129.612 116.048 128.172 115.376C126.732 114.672 125.628 113.728 124.86 112.544C124.092 111.36 123.708 110.032 123.708 108.56C123.708 107.024 124.076 105.68 124.812 104.528C125.58 103.376 126.78 102.48 128.412 101.84C130.044 101.168 132.172 100.832 134.796 100.832H141.66V105.2H135.612C133.852 105.2 132.636 105.488 131.964 106.064C131.324 106.64 131.004 107.36 131.004 108.224C131.004 109.184 131.372 109.952 132.108 110.528C132.876 111.072 133.916 111.344 135.228 111.344C136.476 111.344 137.596 111.056 138.588 110.48C139.58 109.872 140.3 108.992 140.748 107.84L141.9 111.296C141.356 112.96 140.364 114.224 138.924 115.088C137.484 115.952 135.628 116.384 133.356 116.384ZM160.261 116V94.592L161.941 96.32H151.525V90.176H176.437V96.32H166.021L167.701 94.592V116H160.261ZM180.428 116V90.176H187.868V99.68H195.452V106.16H187.868V116H180.428ZM204.86 116.384C202.204 116.384 199.836 115.808 197.756 114.656C195.676 113.504 194.044 111.936 192.86 109.952C191.676 107.936 191.084 105.648 191.084 103.088C191.084 100.496 191.676 98.208 192.86 96.224C194.044 94.208 195.676 92.64 197.756 91.52C199.836 90.368 202.204 89.792 204.86 89.792C207.516 89.792 209.868 90.368 211.916 91.52C213.996 92.64 215.628 94.208 216.812 96.224C217.996 98.208 218.588 100.496 218.588 103.088C218.588 105.648 217.996 107.936 216.812 109.952C215.628 111.968 213.996 113.552 211.916 114.704C209.868 115.824 207.516 116.384 204.86 116.384ZM204.86 110.24C206.076 110.24 207.148 109.952 208.076 109.376C209.036 108.8 209.788 107.984 210.332 106.928C210.908 105.84 211.196 104.56 211.196 103.088C211.196 101.584 210.908 100.304 210.332 99.248C209.788 98.192 209.036 97.376 208.076 96.8C207.148 96.224 206.076 95.936 204.86 95.936C203.676 95.936 202.588 96.224 201.596 96.8C200.636 97.376 199.868 98.192 199.292 99.248C198.748 100.304 198.476 101.584 198.476 103.088C198.476 104.56 198.748 105.84 199.292 106.928C199.868 107.984 200.636 108.8 201.596 109.376C202.588 109.952 203.676 110.24 204.86 110.24ZM242.076 116L233.436 103.76L239.532 100.16L250.908 116H242.076ZM223.788 116V90.176H231.276V116H223.788ZM229.068 106.208V100.208H238.092V106.208H229.068ZM240.252 103.952L233.244 103.184L242.316 90.176H250.284L240.252 103.952Z" fill="#F8FCFB"/>
</svg>
