<svg width="107" height="30" viewBox="0 0 107 30" fill="none" xmlns="http://www.w3.org/2000/svg">
<rect width="107" height="30" rx="5" fill="#8BBDAE"/>
<path d="M4.744 21V9.8H9.56C10.776 9.8 11.7307 10.0453 12.424 10.536C13.1173 11.0267 13.464 11.7413 13.464 12.68C13.464 13.5973 13.1333 14.3013 12.472 14.792C11.8107 15.272 10.9413 15.512 9.864 15.512L10.152 15.032C11.4 15.032 12.3547 15.2827 13.016 15.784C13.688 16.2747 14.024 16.9947 14.024 17.944C14.024 18.904 13.672 19.656 12.968 20.2C12.2747 20.7333 11.24 21 9.864 21H4.744ZM6.328 19.736H9.832C10.6853 19.736 11.3253 19.5813 11.752 19.272C12.1893 18.952 12.408 18.4667 12.408 17.816C12.408 17.1653 12.1893 16.6907 11.752 16.392C11.3253 16.0933 10.6853 15.944 9.832 15.944H6.328V19.736ZM6.328 14.728H9.448C10.2267 14.728 10.8187 14.5733 11.224 14.264C11.64 13.9547 11.848 13.5013 11.848 12.904C11.848 12.296 11.64 11.8373 11.224 11.528C10.8187 11.2187 10.2267 11.064 9.448 11.064H6.328V14.728ZM20.2171 21.096C19.3105 21.096 18.5105 20.9093 17.8171 20.536C17.1345 20.1627 16.6011 19.6507 16.2171 19C15.8438 18.3493 15.6571 17.6027 15.6571 16.76C15.6571 15.9173 15.8385 15.1707 16.2011 14.52C16.5745 13.8693 17.0811 13.3627 17.7211 13C18.3718 12.6267 19.1025 12.44 19.9131 12.44C20.7345 12.44 21.4598 12.6213 22.0891 12.984C22.7185 13.3467 23.2091 13.8587 23.5611 14.52C23.9238 15.1707 24.1051 15.9333 24.1051 16.808C24.1051 16.872 24.0998 16.9467 24.0891 17.032C24.0891 17.1173 24.0838 17.1973 24.0731 17.272H16.8571V16.168H23.2731L22.6491 16.552C22.6598 16.008 22.5478 15.5227 22.3131 15.096C22.0785 14.6693 21.7531 14.3387 21.3371 14.104C20.9318 13.8587 20.4571 13.736 19.9131 13.736C19.3798 13.736 18.9051 13.8587 18.4891 14.104C18.0731 14.3387 17.7478 14.6747 17.5131 15.112C17.2785 15.5387 17.1611 16.0293 17.1611 16.584V16.84C17.1611 17.4053 17.2891 17.912 17.5451 18.36C17.8118 18.7973 18.1798 19.1387 18.6491 19.384C19.1185 19.6293 19.6571 19.752 20.2651 19.752C20.7665 19.752 21.2198 19.6667 21.6251 19.496C22.0411 19.3253 22.4038 19.0693 22.7131 18.728L23.5611 19.72C23.1771 20.168 22.6971 20.5093 22.1211 20.744C21.5558 20.9787 20.9211 21.096 20.2171 21.096ZM30.408 21.128C29.704 21.128 29.08 21.016 28.536 20.792C28.0027 20.568 27.544 20.2373 27.16 19.8C26.776 19.352 26.4827 18.792 26.28 18.12C26.088 17.4373 25.992 16.6373 25.992 15.72C25.992 14.9947 26.056 14.344 26.184 13.768C26.312 13.192 26.4933 12.68 26.728 12.232C26.9733 11.784 27.272 11.3947 27.624 11.064C27.9867 10.7333 28.392 10.4613 28.84 10.248C29.2987 10.024 29.8 9.85333 30.344 9.736L34.216 8.872L34.44 10.296L30.872 11.064C30.6587 11.1067 30.4027 11.1707 30.104 11.256C29.8053 11.3413 29.5013 11.4747 29.192 11.656C28.8827 11.8267 28.5947 12.0667 28.328 12.376C28.0613 12.6853 27.848 13.0907 27.688 13.592C27.528 14.0827 27.448 14.6907 27.448 15.416C27.448 15.6187 27.4533 15.7733 27.464 15.88C27.4747 15.9867 27.4853 16.0933 27.496 16.2C27.5173 16.3067 27.5333 16.4667 27.544 16.68L26.904 16.024C27.0747 15.4373 27.3467 14.9253 27.72 14.488C28.0933 14.0507 28.5413 13.7147 29.064 13.48C29.5973 13.2347 30.1787 13.112 30.808 13.112C31.5973 13.112 32.296 13.2827 32.904 13.624C33.5227 13.9653 34.008 14.4347 34.36 15.032C34.712 15.6293 34.888 16.312 34.888 17.08C34.888 17.8587 34.7013 18.5573 34.328 19.176C33.9653 19.784 33.448 20.264 32.776 20.616C32.104 20.9573 31.3147 21.128 30.408 21.128ZM30.552 19.848C31.096 19.848 31.576 19.7307 31.992 19.496C32.408 19.2507 32.7333 18.9253 32.968 18.52C33.2027 18.104 33.32 17.64 33.32 17.128C33.32 16.616 33.2027 16.1627 32.968 15.768C32.7333 15.3733 32.408 15.064 31.992 14.84C31.576 14.6053 31.0853 14.488 30.52 14.488C29.9867 14.488 29.5067 14.6 29.08 14.824C28.6533 15.0373 28.3227 15.3413 28.088 15.736C27.8533 16.12 27.736 16.568 27.736 17.08C27.736 17.592 27.8533 18.0613 28.088 18.488C28.3333 18.904 28.664 19.2347 29.08 19.48C29.5067 19.7253 29.9973 19.848 30.552 19.848ZM36.662 17.272V15.944H40.966V17.272H36.662ZM49.0144 20.28V13.864H45.3344L45.2544 15.496C45.233 16.0293 45.1957 16.5467 45.1424 17.048C45.0997 17.5387 45.025 17.992 44.9184 18.408C44.8224 18.824 44.6784 19.1653 44.4864 19.432C44.2944 19.6987 44.0384 19.864 43.7184 19.928L42.1984 19.656C42.529 19.6667 42.7957 19.56 42.9984 19.336C43.201 19.1013 43.3557 18.7813 43.4624 18.376C43.5797 17.9707 43.665 17.512 43.7184 17C43.7717 16.4773 43.8144 15.9387 43.8464 15.384L43.9744 12.52H50.5504V20.28H49.0144ZM41.8624 22.968V19.656H51.8464V22.968H50.4064V21H43.3184V22.968H41.8624ZM53.8474 21V12.52H55.3834V18.696L60.5834 12.52H61.9754V21H60.4394V14.824L55.2554 21H53.8474ZM67.2961 21.112C68.0428 21.112 68.7041 21.0053 69.2801 20.792C69.8668 20.568 70.3308 20.264 70.6721 19.88C71.0135 19.4853 71.1841 19.032 71.1841 18.52C71.1841 17.88 70.9121 17.3733 70.3681 17C69.8241 16.6267 69.0775 16.44 68.1281 16.44L68.0641 16.808C68.6188 16.808 69.1095 16.7173 69.5361 16.536C69.9628 16.3547 70.3041 16.1093 70.5601 15.8C70.8161 15.48 70.9441 15.1173 70.9441 14.712C70.9441 14.232 70.7735 13.816 70.4321 13.464C70.1015 13.112 69.6481 12.8453 69.0721 12.664C68.4961 12.472 67.8401 12.3867 67.1041 12.408C66.6135 12.4187 66.1175 12.4933 65.6161 12.632C65.1255 12.76 64.6241 12.9467 64.1121 13.192L64.5281 14.392C64.9868 14.168 65.4348 14.0027 65.8721 13.896C66.3201 13.7893 66.7575 13.7307 67.1841 13.72C67.6215 13.72 68.0001 13.768 68.3201 13.864C68.6508 13.96 68.9068 14.0987 69.0881 14.28C69.2695 14.4613 69.3601 14.68 69.3601 14.936C69.3601 15.1707 69.2801 15.3787 69.1201 15.56C68.9708 15.7307 68.7575 15.8587 68.4801 15.944C68.2028 16.0293 67.8775 16.072 67.5041 16.072H66.0641V17.176H67.6001C68.2295 17.176 68.7201 17.2827 69.0721 17.496C69.4241 17.7093 69.6001 18.0133 69.6001 18.408C69.6001 18.6853 69.5041 18.9307 69.3121 19.144C69.1201 19.3467 68.8428 19.5067 68.4801 19.624C68.1281 19.7413 67.7068 19.8 67.2161 19.8C66.6828 19.8 66.1548 19.7307 65.6321 19.592C65.1095 19.4427 64.6455 19.24 64.2401 18.984L63.7761 20.152C64.2561 20.4613 64.8001 20.7013 65.4081 20.872C66.0268 21.032 66.6561 21.112 67.2961 21.112ZM78.7193 21V19.208L78.6393 18.872V15.816C78.6393 15.1653 78.4473 14.664 78.0633 14.312C77.6899 13.9493 77.1246 13.768 76.3673 13.768C75.8659 13.768 75.3753 13.8533 74.8953 14.024C74.4153 14.184 74.0099 14.4027 73.6793 14.68L73.0393 13.528C73.4766 13.176 73.9993 12.9093 74.6073 12.728C75.2259 12.536 75.8713 12.44 76.5433 12.44C77.7059 12.44 78.6019 12.7227 79.2313 13.288C79.8606 13.8533 80.1753 14.7173 80.1753 15.88V21H78.7193ZM75.9353 21.096C75.3059 21.096 74.7513 20.9893 74.2713 20.776C73.8019 20.5627 73.4393 20.2693 73.1833 19.896C72.9273 19.512 72.7993 19.08 72.7993 18.6C72.7993 18.1413 72.9059 17.7253 73.1193 17.352C73.3433 16.9787 73.7006 16.68 74.1913 16.456C74.6926 16.232 75.3646 16.12 76.2073 16.12H78.8953V17.224H76.2713C75.5033 17.224 74.9859 17.352 74.7193 17.608C74.4526 17.864 74.3193 18.1733 74.3193 18.536C74.3193 18.952 74.4846 19.288 74.8153 19.544C75.1459 19.7893 75.6046 19.912 76.1913 19.912C76.7673 19.912 77.2686 19.784 77.6953 19.528C78.1326 19.272 78.4473 18.8987 78.6393 18.408L78.9433 19.464C78.7406 19.9653 78.3833 20.3653 77.8713 20.664C77.3593 20.952 76.7139 21.096 75.9353 21.096ZM82.9411 21V12.52H84.4771V18.696L89.6771 12.52H91.0691V21H89.5331V14.824L84.3491 21H82.9411ZM86.9091 11.416C86.1305 11.416 85.5171 11.2293 85.0691 10.856C84.6318 10.472 84.4078 9.92267 84.3971 9.208H85.4371C85.4478 9.61333 85.5811 9.93333 85.8371 10.168C86.1038 10.4027 86.4558 10.52 86.8931 10.52C87.3305 10.52 87.6825 10.4027 87.9491 10.168C88.2158 9.93333 88.3545 9.61333 88.3651 9.208H89.4371C89.4265 9.92267 89.1971 10.472 88.7491 10.856C88.3011 11.2293 87.6878 11.416 86.9091 11.416ZM94.0505 21V12.52H95.5865V16.12H100.419V12.52H101.955V21H100.419V17.448H95.5865V21H94.0505Z" fill="#F8FCFB"/>
</svg>
