<svg width="30" height="30" viewBox="0 0 30 30" fill="none" xmlns="http://www.w3.org/2000/svg">
<path d="M14.5273 0C6.51537 0 0.0181885 6.71701 0.0181885 15C0.0181885 23.283 6.51537 30 14.5273 30C22.5392 30 29.0364 23.283 29.0364 15C29.0364 6.71701 22.5392 0 14.5273 0ZM21.8062 11.4769V13.508C20.8798 13.5083 19.9797 13.3206 19.1308 12.9504C18.5883 12.7139 18.0775 12.406 17.6113 12.0342L17.6252 18.2858C17.6194 19.6935 17.0807 21.0161 16.1057 22.0124C15.3122 22.8233 14.3068 23.339 13.217 23.5059C12.9587 23.5455 12.698 23.5653 12.4368 23.5652C11.2703 23.5652 10.1628 23.1745 9.25679 22.4537C9.08526 22.3171 8.92202 22.1697 8.76801 22.0124C7.71135 20.9327 7.16646 19.4694 7.25822 17.9299C7.32822 16.7581 7.78202 15.6405 8.53853 14.7646C9.53943 13.6055 10.9397 12.9622 12.4368 12.9622C12.7004 12.9622 12.961 12.9826 13.217 13.0218V15.8617C12.9679 15.7767 12.7073 15.7334 12.4449 15.7334C11.0771 15.7334 9.97051 16.8871 9.99097 18.3023C10.004 19.2077 10.4824 19.9992 11.188 20.4355C11.5279 20.6463 11.9124 20.7682 12.3082 20.7907C12.616 20.8084 12.9243 20.7661 13.217 20.6661C14.1943 20.3323 14.8993 19.3833 14.8993 18.2641L14.9025 14.0777V6.43477H17.608C17.6103 6.70663 17.6372 6.97768 17.6884 7.24436C17.8926 8.30496 18.4708 9.22512 19.2757 9.85242C19.9774 10.3996 20.8512 10.724 21.7984 10.724C21.799 10.724 21.8068 10.724 21.8061 10.7234V11.4769H21.8062Z" fill="#F99746"/>
</svg>
