<svg width="45" height="47" viewBox="0 0 45 47" fill="none" xmlns="http://www.w3.org/2000/svg">
<path d="M22.4219 0.0374146C10.1268 0.0374146 0.15625 10.374 0.15625 23.1203C0.15625 35.8667 10.1268 46.2033 22.4219 46.2033C34.7169 46.2033 44.6875 35.8667 44.6875 23.1203C44.6875 10.374 34.7169 0.0374146 22.4219 0.0374146ZM33.5921 17.6988V20.8243C32.1705 20.8249 30.7892 20.5361 29.4865 19.9663C28.6539 19.6024 27.8701 19.1285 27.1546 18.5564L27.176 28.1767C27.1671 30.343 26.3404 32.3783 24.8441 33.9114C23.6265 35.1594 22.0835 35.9529 20.4112 36.2098C20.0148 36.2706 19.6146 36.3011 19.2139 36.3011C17.4237 36.3011 15.7241 35.6998 14.3338 34.5906C14.0706 34.3804 13.8201 34.1536 13.5837 33.9114C11.9622 32.2499 11.126 29.9981 11.2668 27.6291C11.3742 25.8258 12.0706 24.1061 13.2316 22.7581C14.7675 20.9744 16.9164 19.9844 19.2139 19.9844C19.6183 19.9844 20.0182 20.0159 20.4112 20.0762V24.4464C20.0289 24.3155 19.6289 24.2489 19.2263 24.249C17.1273 24.249 15.4291 26.0244 15.4605 28.2021C15.4804 29.5955 16.2145 30.8135 17.2974 31.4848C17.819 31.8092 18.4091 31.9968 19.0165 32.0314C19.4888 32.0587 19.962 31.9936 20.4112 31.8397C21.9109 31.3261 22.9928 29.8657 22.9928 28.1433L22.9977 21.7011V9.93963H27.1496C27.1531 10.358 27.1943 10.7751 27.2729 11.1855C27.5863 12.8176 28.4737 14.2336 29.7087 15.1989C30.7857 16.041 32.1266 16.5402 33.5801 16.5402C33.581 16.5402 33.593 16.5402 33.592 16.5392V17.6988H33.5921Z" fill="#2E2E3B"/>
</svg>
