<svg width="45" height="47" viewBox="0 0 45 47" fill="none" xmlns="http://www.w3.org/2000/svg">
<path d="M19.8047 27.4448L27.0475 23.1204L19.8047 18.7959V27.4448Z" fill="#2E2E3B"/>
<path d="M22.5781 0.0374146C10.2831 0.0374146 0.3125 10.374 0.3125 23.1203C0.3125 35.8667 10.2831 46.2033 22.5781 46.2033C34.8732 46.2033 44.8438 35.8667 44.8438 23.1203C44.8438 10.374 34.8732 0.0374146 22.5781 0.0374146ZM36.4907 23.144C36.4907 23.144 36.4907 27.8253 35.9179 30.0826C35.5969 31.3182 34.6571 32.2925 33.4652 32.6249C31.288 33.2191 22.5781 33.2191 22.5781 33.2191C22.5781 33.2191 13.8911 33.2191 11.6909 32.6013C10.4991 32.2689 9.55934 31.2942 9.23832 30.0587C8.66515 27.8252 8.66515 23.1203 8.66515 23.1203C8.66515 23.1203 8.66515 18.4394 9.23832 16.1819C9.55908 14.9465 10.5219 13.9482 11.691 13.6158C13.8683 13.0216 22.5781 13.0216 22.5781 13.0216C22.5781 13.0216 31.2878 13.0216 33.4653 13.6394C34.6571 13.9718 35.5969 14.9465 35.9179 16.182C36.5139 18.4394 36.4907 23.1439 36.4907 23.1439L36.4907 23.144Z" fill="#2E2E3B"/>
</svg>
